<?xml version="1.0" encoding="UTF-8" standalone="no"?>
<!-- Created with Inkscape (http://www.inkscape.org/) -->

<svg
   xmlns:dc="http://purl.org/dc/elements/1.1/"
   xmlns:cc="http://creativecommons.org/ns#"
   xmlns:rdf="http://www.w3.org/1999/02/22-rdf-syntax-ns#"
   xmlns:svg="http://www.w3.org/2000/svg"
   xmlns="http://www.w3.org/2000/svg"
   xmlns:sodipodi="http://sodipodi.sourceforge.net/DTD/sodipodi-0.dtd"
   xmlns:inkscape="http://www.inkscape.org/namespaces/inkscape"
   id="svg2830"
   version="1.1"
   inkscape:version="0.47 r22583"
   width="347.92001"
   height="32.380001"
   xml:space="preserve"
   sodipodi:docname="08_BBCGuidelines.pdf"><metadata
     id="metadata2836"><rdf:RDF><cc:Work
         rdf:about=""><dc:format>image/svg+xml</dc:format><dc:type
           rdf:resource="http://purl.org/dc/dcmitype/StillImage" /><dc:title></dc:title></cc:Work></rdf:RDF></metadata><defs
     id="defs2834"><inkscape:perspective
       sodipodi:type="inkscape:persp3d"
       inkscape:vp_x="0 : 0.5 : 1"
       inkscape:vp_y="0 : 1000 : 0"
       inkscape:vp_z="1 : 0.5 : 1"
       inkscape:persp3d-origin="0.5 : 0.33333333 : 1"
       id="perspective2838" /><clipPath
       clipPathUnits="userSpaceOnUse"
       id="clipPath2846"><path
         d="m 0,0 841.89,0 0,595.276 L 0,595.276 0,0 z"
         id="path2848" /></clipPath><clipPath
       clipPathUnits="userSpaceOnUse"
       id="clipPath2928"><path
         d="m 129.993,309.735 186.366,0 0,139.775 -186.366,0 0,-139.775 z"
         id="path2930" /></clipPath><clipPath
       clipPathUnits="userSpaceOnUse"
       id="clipPath3000"><path
         d="m 77.749,131.811 292.235,0 0,72.783 -292.235,0 0,-72.783 z"
         id="path3002" /></clipPath><clipPath
       clipPathUnits="userSpaceOnUse"
       id="clipPath3058"><path
         d="m 403.646,409.562 70.866,0 0,53.15 -70.866,0 0,-53.15 z"
         id="path3060" /></clipPath><clipPath
       clipPathUnits="userSpaceOnUse"
       id="clipPath3118"><path
         d="m 403.646,318.711 70.866,0 0,53.15 -70.866,0 0,-53.15 z"
         id="path3120" /></clipPath><clipPath
       clipPathUnits="userSpaceOnUse"
       id="clipPath3174"><path
         d="m 403.569,149.522 145.431,0 0,27.781 -145.431,0 0,-27.781 z"
         id="path3176" /></clipPath></defs><sodipodi:namedview
     pagecolor="#ffffff"
     bordercolor="#666666"
     borderopacity="1"
     objecttolerance="10"
     gridtolerance="10"
     guidetolerance="10"
     inkscape:pageopacity="0"
     inkscape:pageshadow="2"
     inkscape:window-width="1680"
     inkscape:window-height="1000"
     id="namedview2832"
     showgrid="false"
     inkscape:zoom="0.89707474"
     inkscape:cx="243.27568"
     inkscape:cy="102.01606"
     inkscape:window-x="-8"
     inkscape:window-y="-8"
     inkscape:window-maximized="1"
     inkscape:current-layer="g2840" /><g
     id="g2840"
     inkscape:groupmode="layer"
     inkscape:label="08_BBCGuidelines"
     transform="matrix(1.25,0,0,-1.25,-318.26766,346.51287)"><path
       d="m 472.84013,272.8943 2.455,0 0,-18.05 -2.223,0 -12.067,13.901 0,-13.901 -2.429,0 0,18.05 2.093,0 12.171,-14.019 0,14.019 z"
       style="fill:#231f20;fill-opacity:1;fill-rule:nonzero;stroke:none"
       id="path3004" /><path
       d="m 479.95213,272.8943 10.233,0 0,-2.3 -7.649,0 0,-5.504 7.391,0 0,-2.313 -7.391,0 0,-5.608 7.894,0 0,-2.299 -10.478,0 0,18.024 z"
       style="fill:#231f20;fill-opacity:1;fill-rule:nonzero;stroke:none"
       id="path3006" /><path
       d="m 517.76313,272.8943 2.577,0 -7.298,-18.127 -0.568,0 -5.901,14.677 -5.963,-14.677 -0.555,0 -7.275,18.127 2.604,0 4.974,-12.443 5.008,12.443 2.442,0 5.031,-12.443 4.924,12.443 z"
       style="fill:#231f20;fill-opacity:1;fill-rule:nonzero;stroke:none"
       id="path3008" /><path
       d="m 527.34213,262.4073 -1.964,1.193 c -1.232,0.752 -2.109,1.492 -2.63,2.22 -0.521,0.728 -0.781,1.566 -0.781,2.513 0,1.421 0.493,2.576 1.48,3.462 0.985,0.888 2.267,1.331 3.844,1.331 1.506,0 2.889,-0.423 4.146,-1.27 l 0,-2.932 c -1.3,1.251 -2.7,1.876 -4.198,1.876 -0.845,0 -1.538,-0.195 -2.081,-0.585 -0.543,-0.39 -0.814,-0.89 -0.814,-1.499 0,-0.541 0.2,-1.047 0.599,-1.519 0.4,-0.472 1.043,-0.968 1.929,-1.487 l 1.974,-1.167 c 2.202,-1.315 3.302,-2.989 3.302,-5.022 0,-1.447 -0.484,-2.622 -1.453,-3.527 -0.97,-0.905 -2.229,-1.356 -3.779,-1.356 -1.784,0 -3.408,0.547 -4.871,1.644 l 0,3.282 c 1.395,-1.769 3.01,-2.653 4.844,-2.653 0.81,0 1.485,0.226 2.023,0.676 0.538,0.451 0.807,1.015 0.807,1.693 0,1.099 -0.792,2.141 -2.377,3.127"
       style="fill:#231f20;fill-opacity:1;fill-rule:nonzero;stroke:none"
       id="path3010" /><path
       d="m 374.94413,272.8693 2.577,0 -7.297,-18.129 -0.568,0 -5.902,14.678 -5.963,-14.678 -0.555,0 -7.275,18.129 2.604,0 4.974,-12.443 5.008,12.443 2.442,0 5.031,-12.443 4.924,12.443 z"
       style="fill:#231f20;fill-opacity:1;fill-rule:nonzero;stroke:none"
       id="path3012" /><path
       d="m 387.68913,270.6723 c -2.065,0 -3.762,-0.646 -5.092,-1.939 -1.329,-1.292 -1.995,-2.941 -1.995,-4.948 0,-1.947 0.668,-3.566 2.001,-4.858 1.334,-1.292 3.004,-1.938 5.009,-1.938 2.014,0 3.694,0.659 5.04,1.977 1.347,1.317 2.021,2.958 2.021,4.923 0,1.911 -0.674,3.52 -2.021,4.825 -1.346,1.305 -3.001,1.958 -4.963,1.958 m -0.103,2.454 c 2.789,0 5.111,-0.882 6.966,-2.648 1.854,-1.766 2.783,-3.98 2.783,-6.641 0,-2.662 -0.937,-4.865 -2.809,-6.61 -1.873,-1.743 -4.233,-2.615 -7.082,-2.615 -2.72,0 -4.986,0.872 -6.798,2.615 -1.812,1.745 -2.718,3.931 -2.718,6.558 0,2.696 0.912,4.927 2.737,6.693 1.825,1.766 4.131,2.648 6.921,2.648"
       style="fill:#231f20;fill-opacity:1;fill-rule:nonzero;stroke:none"
       id="path3014" /><path
       d="m 403.68513,270.6723 -0.775,0 0,-5.698 0.982,0 c 1.309,0 2.207,0.112 2.694,0.335 0.487,0.224 0.866,0.563 1.137,1.015 0.271,0.452 0.407,0.967 0.407,1.544 0,0.569 -0.151,1.083 -0.452,1.544 -0.302,0.461 -0.726,0.786 -1.273,0.976 -0.547,0.189 -1.454,0.284 -2.72,0.284 m -3.359,-15.854 0,18.051 4.522,0 c 1.826,0 3.276,-0.453 4.347,-1.358 1.073,-0.904 1.609,-2.128 1.609,-3.668 0,-1.052 -0.263,-1.96 -0.788,-2.727 -0.525,-0.767 -1.279,-1.34 -2.26,-1.719 0.576,-0.379 1.14,-0.896 1.691,-1.55 0.552,-0.655 1.327,-1.796 2.326,-3.424 0.629,-1.026 1.133,-1.796 1.512,-2.313 l 0.957,-1.292 -3.076,0 -0.787,1.189 c -0.026,0.043 -0.078,0.117 -0.155,0.22 l -0.503,0.712 -0.8,1.318 -0.865,1.409 c -0.533,0.741 -1.022,1.331 -1.466,1.769 -0.444,0.439 -0.845,0.755 -1.203,0.949 -0.358,0.193 -0.959,0.29 -1.805,0.29 l -0.672,0 0,-7.856 -2.584,0 z"
       style="fill:#231f20;fill-opacity:1;fill-rule:nonzero;stroke:none"
       id="path3016" /><path
       d="m 416.76013,272.8693 2.584,0 0,-15.7 8.127,0 0,-2.351 -10.711,0 0,18.051 z"
       style="fill:#231f20;fill-opacity:1;fill-rule:nonzero;stroke:none"
       id="path3018" /><path
       d="m 436.36613,270.5683 -3.23,0 0,-13.424 3.308,0 c 1.292,0 2.296,0.088 3.01,0.265 0.716,0.176 1.311,0.4 1.79,0.671 0.478,0.272 0.915,0.606 1.311,1.002 1.275,1.292 1.912,2.924 1.912,4.897 0,1.938 -0.654,3.519 -1.964,4.742 -0.482,0.456 -1.035,0.831 -1.66,1.124 -0.625,0.292 -1.216,0.486 -1.776,0.581 -0.56,0.095 -1.46,0.142 -2.701,0.142 m -5.814,-15.724 0,18.025 6.086,0 c 2.455,0 4.397,-0.369 5.827,-1.105 1.43,-0.737 2.566,-1.82 3.411,-3.25 0.844,-1.43 1.266,-2.989 1.266,-4.677 0,-1.207 -0.232,-2.361 -0.698,-3.463 -0.465,-1.103 -1.128,-2.072 -1.989,-2.907 -0.879,-0.862 -1.9,-1.512 -3.063,-1.951 -0.68,-0.267 -1.304,-0.446 -1.873,-0.537 -0.569,-0.09 -1.654,-0.135 -3.256,-0.135 l -5.711,0 z"
       style="fill:#231f20;fill-opacity:1;fill-rule:nonzero;stroke:none"
       id="path3020" /><path
       d="m 337.47213,259.6493 -0.427,-0.261 c -2.065,-1.262 -4.314,-1.939 -6.355,-1.939 -4.367,0.018 -7.246,2.607 -7.256,6.374 0.004,3.687 3.01,6.415 7.147,6.425 2.107,-10e-4 4.016,-0.546 6.283,-1.79 l 0.417,-0.228 0,3.366 -0.178,0.069 c -2.557,1.009 -4.538,1.458 -6.495,1.458 -3.024,0 -5.649,-0.997 -7.519,-2.693 -1.869,-1.695 -2.977,-4.09 -2.977,-6.837 0.001,-1.914 0.792,-4.16 2.481,-5.941 1.69,-1.781 4.287,-3.08 7.852,-3.078 l 0.012,0 c 2.957,0 5.005,0.659 6.858,1.572 l 0.157,0.077 0,3.426 z m 5.299,-8.343 -26.678,0 0,25.106 26.678,0 0,-25.106 z m -67.818,8.461 c 0.008,2.282 -1.512,4.013 -3.941,4.68 0.654,0.335 1.173,0.745 1.553,1.245 0.51,0.669 0.751,1.492 0.75,2.448 10e-4,1.177 -0.461,2.376 -1.454,3.273 -0.994,0.897 -2.504,1.48 -4.562,1.478 l -5.687,0 0,-18.08 6.671,0 0.003,0 c 2.383,0 4.053,0.645 5.129,1.599 1.077,0.953 1.54,2.205 1.538,3.357 m 6.338,-8.461 -26.677,0 0,25.106 26.677,0 0,-25.106 z m -10.547,10.55 c -0.609,0.434 -1.584,0.713 -2.953,0.712 l -2.94,0 0,-4.935 3.077,0 c 1.529,0 2.451,0.358 2.985,0.827 0.533,0.469 0.718,1.069 0.72,1.667 -0.005,0.72 -0.279,1.292 -0.889,1.729 m -1.604,4.18 c 0.572,0.415 0.849,0.997 0.854,1.873 -10e-4,0.602 -0.174,1.116 -0.607,1.501 -0.435,0.385 -1.172,0.658 -2.361,0.659 l -2.175,0 0,-4.677 1.493,0 c 1.294,-10e-4 2.22,0.231 2.796,0.644 m 36.553,-6.269 c 0.007,2.282 -1.513,4.013 -3.941,4.68 0.654,0.335 1.173,0.745 1.553,1.245 0.509,0.669 0.751,1.492 0.749,2.448 0.002,1.177 -0.461,2.376 -1.454,3.273 -0.992,0.897 -2.502,1.48 -4.56,1.478 l -5.689,0 0,-18.08 6.671,0 0.005,0 c 2.381,0 4.052,0.645 5.128,1.599 1.076,0.953 1.539,2.205 1.538,3.357 m 6.338,-8.461 -26.678,0 0,25.106 26.678,0 0,-25.106 z m -12.151,14.73 c 0.572,0.415 0.848,0.997 0.854,1.873 -0.002,0.602 -0.175,1.116 -0.608,1.501 -0.433,0.385 -1.172,0.658 -2.36,0.659 l -2.176,0 0,-4.677 1.493,0 c 1.294,-10e-4 2.22,0.231 2.797,0.644 m 2.493,-5.909 c -0.003,-0.598 -0.187,-1.198 -0.72,-1.667 -0.534,-0.469 -1.457,-0.827 -2.986,-0.827 l -3.077,0 0,4.935 2.941,0 c 1.37,10e-4 2.344,-0.278 2.953,-0.712 0.609,-0.437 0.883,-1.009 0.889,-1.729"
       style="fill:#231f20;fill-opacity:1;fill-rule:nonzero;stroke:none"
       id="path3022" /></g></svg>