<?xml version="1.0" encoding="UTF-8"?> <svg xmlns="http://www.w3.org/2000/svg" width="200" height="32" viewBox="0 0 200 32" fill="none"><g id="Dialogue-Earth-Logo"><path id="Vector" d="M193.655 7.65028C191.431 7.65028 189.644 8.54168 188.616 10.1298V1.5H185V24.8617H188.616V15.6991C188.616 12.9529 190.366 10.9591 192.777 10.9591C194.935 10.9591 196.384 12.6274 196.384 15.1102V24.8617H200V14.4887C200 10.3981 197.45 7.64864 193.653 7.64864L193.655 7.65028Z" fill="black"></path><path id="Vector_2" d="M178.157 11.1308V19.142H178.159C178.159 20.7645 178.98 21.6575 180.473 21.6575H183.023V24.8682H180.212C176.706 24.8682 174.528 22.7108 174.528 19.2385V2.75H178.157V7.92012H183.5L180.473 11.1308H178.157Z" fill="black"></path><path id="Vector_3" d="M170.772 7.94043H172.5V11.1511H170.381C167.857 11.1511 166.629 13.1302 166.629 17.1995V24.8901H163V7.94043H166.629V10.2205C167.468 8.65191 168.784 7.94043 170.772 7.94043Z" fill="black"></path><path id="Vector_4" d="M153.335 7.6499C149.371 7.6499 146.294 10.1197 146.02 13.5217L146 13.7719H149.407L149.42 13.5544C149.515 11.9335 151.191 10.6643 153.237 10.6643C155.552 10.6643 156.988 11.8665 156.988 13.8014C156.988 14.2986 156.693 14.5505 156.11 14.5505H152.682C148.654 14.5505 146.051 16.6571 146.051 19.9185C146.051 23.1799 148.387 25.123 151.866 25.123C154.047 25.123 155.961 24.2381 156.988 22.8119V24.8629H160.617V13.9993C160.617 10.2014 157.69 7.6499 153.333 7.6499H153.335ZM152.486 22.1413C150.788 22.1413 149.649 21.2221 149.649 19.8547C149.649 18.2666 150.955 17.241 152.976 17.241H156.988V17.4013C156.988 20.3699 155.305 22.1413 152.486 22.1413Z" fill="black"></path><path id="Vector_5" d="M132.359 14.5586H142V11.0846H132.359V4.97401H144V1.5H128.5V24.8629H144.5V21.3889H132.359V14.5586Z" fill="black"></path><path id="Vector_6" d="M95.8311 17.103C95.8311 19.8492 94.0746 21.843 91.6552 21.843C89.4889 21.843 88.0343 20.1747 88.0343 17.6919V7.94043H84.4053V18.3134C84.4053 22.404 86.965 25.1535 90.7753 25.1535C93.0053 25.1535 94.801 24.2621 95.8328 22.6739V24.8918H99.4618V7.94043H95.8328V17.103H95.8311Z" fill="black"></path><path id="Vector_7" d="M113.981 19.239C113.549 21.0022 112.052 21.9738 109.766 21.9738C107.105 21.9738 105.202 20.1108 104.864 17.2027H117.385L117.408 16.9966C117.44 16.699 117.475 16.1674 117.475 15.7274C117.475 13.5341 116.747 11.5321 115.423 10.0911C113.973 8.51279 111.905 7.677 109.441 7.677C106.978 7.677 104.882 8.55859 103.403 10.2285C102.031 11.7774 101.275 13.9397 101.275 16.3162C101.275 18.6928 102.085 20.8665 103.556 22.4906C105.131 24.2309 107.28 25.1501 109.768 25.1501C113.917 25.1501 116.991 22.8668 117.604 19.3323L117.651 19.0608H114.027L113.984 19.2374L113.981 19.239ZM104.986 14.4173C105.51 11.9803 107.045 10.693 109.44 10.693C111.834 10.693 113.506 12.1127 113.787 14.4173H104.986Z" fill="black"></path><path id="Vector_8" d="M75.6672 7.94036C71.8015 7.94036 69.1013 10.3758 69.1013 13.8645C69.1013 15.1517 69.4589 16.3375 70.1396 17.3091C69.0083 18.4523 68.2198 19.401 68.2198 20.7994C68.2198 21.8577 68.6018 22.718 69.3576 23.3575C68.3406 24.2669 67.7627 25.4772 67.7627 26.7203V26.8021C67.7627 29.6611 70.1347 32 73.8715 32H77.5626C81.3304 32 83.6371 29.6611 83.6371 26.8021V26.4259C83.6371 23.4785 81.4463 21.6467 77.9201 21.6467H73.3491C72.621 21.6467 71.7525 21.4602 71.7525 20.5704C71.7525 20.1076 71.9566 19.8181 72.5263 19.1818C73.4536 19.5842 74.5098 19.787 75.6672 19.787C79.533 19.787 82.2331 17.3516 82.2331 13.8629C82.2331 12.4791 81.763 11.1952 80.8716 10.1337L82.8812 7.93872H75.6672V7.94036ZM75.6672 16.7726C73.8617 16.7726 72.6014 15.577 72.6014 13.8645C72.6014 12.152 73.8617 10.9237 75.6672 10.9237C77.4728 10.9237 78.7331 12.1324 78.7331 13.8645C78.7331 15.5966 77.4728 16.7726 75.6672 16.7726ZM73.3165 28.7124C72.1786 28.6323 71.2954 27.8129 71.2954 26.6222C71.2954 25.7357 71.5942 25.0732 72.2357 24.5466C72.6977 24.6251 73.212 24.6627 73.8388 24.6627H77.6589C79.3044 24.6627 80.0717 25.2957 80.0717 26.6549C80.0717 28.014 79.4563 28.5898 78.1813 28.7124C75.4991 28.9087 73.3165 28.7124 73.3165 28.7124Z" fill="black"></path><path id="Vector_9" d="M58.5035 7.67871C53.4509 7.67871 49.7827 11.3523 49.7827 16.4161C49.7827 21.4799 53.4493 25.1534 58.5035 25.1534C63.5577 25.1534 67.1917 21.4799 67.1917 16.4161C67.1917 11.3523 63.5381 7.67871 58.5035 7.67871ZM58.5035 21.9084C55.4981 21.9084 53.4787 19.7004 53.4787 16.4161C53.4787 13.1318 55.4981 10.9237 58.5035 10.9237C61.5089 10.9237 63.4957 13.1825 63.4957 16.4161C63.4957 19.6496 61.442 21.9084 58.5035 21.9084Z" fill="black"></path><path id="Vector_10" d="M25.7882 7.94043H22.1592V24.8901H25.7882V7.94043Z" fill="black"></path><path id="Vector_11" d="M35.0492 7.67871C31.0838 7.67871 28.0082 10.1485 27.7339 13.5505L27.7144 13.8008H31.1214L31.1344 13.5832C31.2291 11.9623 32.9057 10.6931 34.9512 10.6931C37.2661 10.6931 38.7027 11.8953 38.7027 13.8302C38.7027 14.3274 38.4072 14.5793 37.8244 14.5793H34.3962C30.3688 14.5793 27.765 16.6859 27.765 19.9473C27.765 23.2087 30.1011 25.1518 33.5799 25.1518C35.7609 25.1518 37.6758 24.2669 38.7027 22.8407V24.8917H42.3317V14.0281C42.3317 10.2302 39.4047 7.67871 35.0475 7.67871H35.0492ZM34.2003 22.1701C32.5025 22.1701 31.363 21.2509 31.363 19.8835C31.363 18.2954 32.669 17.2699 34.69 17.2699H38.7027V17.4301C38.7027 20.3988 37.0196 22.1701 34.2003 22.1701Z" fill="black"></path><path id="Vector_12" d="M48.1788 1.52832H44.5498V24.89H48.1788V1.52832Z" fill="black"></path><path id="Vector_13" d="M23.9748 5.53103C25.4174 5.53103 26.5868 4.35938 26.5868 2.91408C26.5868 1.46877 25.4174 0.297119 23.9748 0.297119C22.5322 0.297119 21.3628 1.46877 21.3628 2.91408C21.3628 4.35938 22.5322 5.53103 23.9748 5.53103Z" fill="#57D9C5"></path><path id="Vector_14" d="M16.8637 4.47596C14.7806 2.54759 11.8307 1.48608 8.55591 1.48608H0V24.8473H8.55755C11.8323 24.8473 14.7823 23.7858 16.8653 21.8575C19.1214 19.7688 20.3148 16.7642 20.3148 13.1659C20.3148 9.56757 19.1214 6.56298 16.8653 4.47432L16.8637 4.47596ZM13.9121 19.4826C12.5164 20.7207 10.5965 21.375 8.36001 21.375H0.16325L4.02084 17.51V4.96009H8.36001C10.5965 4.96009 12.5164 5.61433 13.9121 6.85248C15.5332 8.29017 16.356 10.4148 16.356 13.1675C16.356 15.9202 15.5332 18.0449 13.9121 19.4826Z" fill="black"></path></g></svg> 