<?xml version="1.0" encoding="UTF-8" standalone="no"?>
<!-- Created with Inkscape (http://www.inkscape.org/) -->

<svg
   width="91.057274mm"
   height="23.40971mm"
   viewBox="0 0 91.057277 23.40971"
   version="1.1"
   id="svg1"
   xml:space="preserve"
   inkscape:version="1.3.2 (091e20e, 2023-11-25, custom)"
   sodipodi:docname="Scroll India Logo.svg"
   xmlns:inkscape="http://www.inkscape.org/namespaces/inkscape"
   xmlns:sodipodi="http://sodipodi.sourceforge.net/DTD/sodipodi-0.dtd"
   xmlns="http://www.w3.org/2000/svg"
   xmlns:svg="http://www.w3.org/2000/svg"><sodipodi:namedview
     id="namedview1"
     pagecolor="#ffffff"
     bordercolor="#000000"
     borderopacity="0.25"
     inkscape:showpageshadow="2"
     inkscape:pageopacity="0.0"
     inkscape:pagecheckerboard="0"
     inkscape:deskcolor="#d1d1d1"
     inkscape:document-units="mm"
     inkscape:zoom="1"
     inkscape:cx="304"
     inkscape:cy="-61.5"
     inkscape:window-width="1920"
     inkscape:window-height="1009"
     inkscape:window-x="-8"
     inkscape:window-y="-8"
     inkscape:window-maximized="1"
     inkscape:current-layer="layer1" /><defs
     id="defs1" /><g
     inkscape:label="Layer 1"
     inkscape:groupmode="layer"
     id="layer1"
     transform="translate(-57.56969,-141.46018)"><path
       style="fill:#000000"
       d="m 64.161462,164.8067 c -2.781663,-0.51388 -5.00956,-1.98776 -5.969021,-3.94883 -0.615128,-1.25727 -0.696901,-1.69074 -0.574207,-3.04383 0.298037,-3.28681 2.496943,-5.28174 5.82178,-5.28174 1.366905,0 1.649849,0.094 2.329301,0.7734 0.908999,0.909 1.00067,1.90975 0.24423,2.66619 -1.128624,1.12862 -2.409828,0.41623 -2.630021,-1.46238 l -0.148103,-1.26356 -0.871498,0.73479 c -2.671701,2.25262 -2.515695,6.59021 0.311297,8.6553 1.028921,0.75162 1.199475,0.78943 3.073742,0.68152 2.310731,-0.13305 3.736037,-0.7563 4.98648,-2.18048 1.077176,-1.22683 1.802106,-2.68974 3.32803,-6.71597 3.327321,-8.77931 4.985922,-11.49049 7.731185,-12.63753 2.355325,-0.98412 5.914719,0.41695 5.914719,2.32818 0,0.77115 -0.800097,1.80596 -1.396336,1.80596 -1.181287,0 -1.871853,-1.48295 -1.240188,-2.66323 0.370735,-0.69272 -0.369479,-0.69351 -1.504207,-0.002 -1.673297,1.02031 -2.743414,3.13034 -5.40763,10.66263 -1.713577,4.84464 -2.392814,6.10928 -4.31032,8.02519 -2.019121,2.01745 -3.83187,2.77886 -6.911108,2.90291 -1.164167,0.0469 -2.414323,0.0303 -2.778125,-0.0369 z m 18.101516,-4.4484 c -3.443746,-1.4994 -2.702873,-7.17429 1.203013,-9.21475 2.149722,-1.12302 5.149896,-0.87177 5.666531,0.47457 0.517797,1.34935 -0.178108,2.76627 -1.35863,2.76627 -0.863656,0 -1.727853,-1.28225 -1.560256,-2.31503 0.178358,-1.09909 -0.11375,-1.08493 -1.259749,0.0611 -1.560336,1.56034 -2.036361,4.81202 -0.865478,5.912 0.726075,0.68211 2.079589,0.75495 3.197312,0.17205 0.962228,-0.5018 1.185031,-0.29905 0.67328,0.6127 -0.904586,1.61163 -3.752736,2.37723 -5.696023,1.53112 z m 20.281872,-0.0724 c -2.04287,-1.0753 -2.696633,-3.57291 -1.60155,-6.11849 1.01636,-2.36259 3.07845,-3.75175 5.56915,-3.75175 1.72588,0 2.99614,0.60275 3.7123,1.76152 0.82977,1.3426 0.63399,3.80785 -0.44042,5.54567 -1.54779,2.50349 -5.01834,3.7322 -7.23948,2.56305 z m 3.26161,-1.1093 c 0.6798,-0.75116 1.42282,-2.91318 1.62974,-4.74212 0.20329,-1.79682 -0.25502,-2.96049 -1.16597,-2.96049 -1.7329,0 -3.42157,6.28111 -2.11269,7.85823 0.40827,0.49193 1.12403,0.42437 1.64892,-0.15562 z m 6.82279,1.37688 c -0.87052,-0.34826 -0.80545,-1.32073 0.50333,-7.52203 0.71818,-3.4029 1.24862,-6.33605 1.17876,-6.51811 -0.0699,-0.18206 -0.36186,-0.33102 -0.64888,-0.33102 -0.48765,0 -0.99565,-0.43938 -0.76949,-0.66554 0.0556,-0.0556 1.14714,-0.33423 2.42555,-0.61909 1.95482,-0.43558 2.34703,-0.45892 2.4668,-0.1468 0.0783,0.20411 -0.48109,3.34062 -1.24315,6.97 -0.76205,3.62939 -1.31414,6.78499 -1.22685,7.01245 0.0873,0.22746 0.45306,0.41357 0.81284,0.41357 1.116,0 1.04009,0.51436 -0.15602,1.05718 -1.08768,0.4936 -2.58993,0.65061 -3.34289,0.34939 z m 6.56554,-0.34824 c -0.29104,-0.29104 -0.52917,-0.68983 -0.52917,-0.8862 0,-0.19637 0.52582,-2.84551 1.1685,-5.88698 1.53072,-7.24422 1.4899,-6.76878 0.61744,-7.19104 -0.88259,-0.42716 -0.93218,-0.79481 -0.13229,-0.98074 3.12002,-0.72523 4.2109,-0.85941 4.33602,-0.53335 0.0718,0.18707 -0.51234,3.35926 -1.29804,7.04932 -0.95054,4.46421 -1.34392,6.81986 -1.17561,7.03993 0.13912,0.1819 0.53602,0.33073 0.882,0.33073 0.99758,0 0.73854,0.69249 -0.43462,1.16189 -1.46289,0.58533 -2.78521,0.54546 -3.43423,-0.10356 z m 6.35,0 c -1.65638,-1.65638 0.62291,-4.35032 2.45885,-2.90617 0.94864,0.74621 1.01871,2.39966 0.12811,3.02346 -0.81033,0.56758 -1.95394,0.51573 -2.58696,-0.11729 z m 5.48968,0.0726 c -0.59902,-0.66191 -0.58091,-1.02994 0.19886,-4.04137 0.8239,-3.18185 0.8239,-3.54521 0,-3.92061 -0.76476,-0.34845 -0.87289,-1.00751 -0.19844,-1.20946 0.93589,-0.28023 4.00398,-0.73502 4.37213,-0.64809 0.31076,0.0734 0.20204,0.82128 -0.59973,4.12578 -1.02596,4.22852 -1.01742,4.41868 0.20683,4.60359 1.57845,0.23841 0.009,1.30448 -2.19371,1.48991 -1.06363,0.0896 -1.41412,0.0111 -1.78594,-0.39975 z m 13.19887,-0.0335 c -0.55386,-0.61201 -0.53403,-1.00738 0.22867,-4.55928 0.60675,-2.82558 0.47924,-3.27747 -0.8641,-3.0624 -1.36623,0.21874 -1.76263,0.82999 -2.28746,3.52723 -0.24994,1.28453 -0.5703,2.78199 -0.71191,3.3277 l -0.25748,0.99218 h -1.53936 -1.53935 l 0.74884,-3.50573 c 0.41186,-1.92815 0.75197,-3.69397 0.7558,-3.92404 0.004,-0.23007 -0.29069,-0.57761 -0.65449,-0.77231 -1.10536,-0.59157 -0.77911,-0.98916 1.17671,-1.434 1.79487,-0.40824 3.18891,-0.53861 3.18891,-0.29824 0,0.0659 -0.1384,0.4236 -0.30756,0.79487 -0.4696,1.03065 -0.10195,1.07877 1.06672,0.1396 0.7106,-0.57105 1.44326,-0.89422 2.22776,-0.98264 2.58059,-0.29087 3.13408,1.03063 2.18628,5.21999 -0.65412,2.89127 -0.60224,3.32987 0.41274,3.48985 1.43628,0.22638 -0.0934,1.28018 -2.14428,1.47725 -0.96078,0.0923 -1.2896,0.008 -1.68644,-0.43003 z m -53.613547,0.15579 c 0,-0.0383 0.359333,-1.73495 0.798517,-3.77031 l 0.798517,-3.70067 -0.666225,-0.53911 c -0.863825,-0.699 -0.843953,-1.13078 0.06138,-1.33361 0.400183,-0.0897 1.144323,-0.26986 1.653646,-0.40044 0.509323,-0.13059 1.266202,-0.2381 1.681953,-0.23891 0.612029,-0.001 0.721816,0.0867 0.576783,0.46155 -0.09852,0.25466 -0.247687,0.82021 -0.331482,1.25677 -0.148006,0.77109 -0.120402,0.75787 0.967056,-0.46302 0.9729,-1.09228 1.254188,-1.25677 2.149159,-1.25677 0.801897,0 1.124088,0.14398 1.456107,0.6507 0.778066,1.18749 -0.145345,3.05346 -1.511064,3.05346 -0.247498,0 -0.799173,-0.29381 -1.225946,-0.65292 l -0.775952,-0.65292 -0.571101,0.60791 c -0.396127,0.42166 -0.788155,1.59446 -1.279544,3.82792 l -0.708443,3.22001 h -1.53668 c -0.845173,0 -1.536679,-0.0313 -1.536679,-0.0696 z M 133.391,148.0797 c -0.5769,-0.63748 -0.55265,-1.57364 0.0671,-2.59 1.00924,-1.65509 3.19919,-1.28126 3.19919,0.54611 0,1.90308 -2.16671,3.25891 -3.26629,2.04389 z"
       id="path1" /></g></svg>
