<?xml version="1.0" encoding="UTF-8"?>
<svg version="1.1" viewBox="0 0 660 60" xml:space="preserve" xmlns="http://www.w3.org/2000/svg">
<path d="m32.7 49.3c0 0.9 0.1 1.9 0.3 2.8 0.2 0.6 0.5 1.1 0.9 1.6 0.4 0.4 0.8 0.6 1.3 0.7s1.1 0.2 1.6 0.2h3.4v4.4h-27.9v-4.4h3.6c0.6 0 1.1 0 1.7-0.2 0.5-0.1 1-0.4 1.3-0.7 0.4-0.4 0.7-1 0.9-1.6 0.2-0.9 0.3-1.8 0.3-2.8v-43.3h-6.6c-1 0-2 0.1-3 0.4-0.9 0.2-1.6 0.6-2.2 1.1-0.5 0.5-0.9 1.1-1.1 1.8-0.3 0.8-0.4 1.6-0.5 2.4l-0.6 5.1h-5.5l0.4-15.8h50.6l0.4 15.7h-5.5l-0.6-4.9c-0.1-0.8-0.3-1.6-0.5-2.4-0.2-0.7-0.6-1.3-1.1-1.8-0.6-0.5-1.3-0.9-2-1.1-1-0.3-2-0.4-3-0.4h-6.5v43.2z"/>
<path d="m90 59v-4.4h3.4c0.5 0 1.1-0.1 1.6-0.2s1-0.4 1.3-0.7c0.4-0.4 0.7-1 0.9-1.6 0.2-0.9 0.3-1.8 0.3-2.8v-18.1h-21v18.1c0 0.9 0.1 1.9 0.3 2.8 0.2 0.6 0.5 1.1 0.9 1.6 0.4 0.4 0.8 0.6 1.3 0.7s1.1 0.2 1.6 0.2h3.4v4.4h-27.7v-4.4h3.4c0.5 0 1.1-0.1 1.6-0.2s1-0.4 1.3-0.7c0.4-0.4 0.7-1 0.9-1.6 0.2-0.9 0.3-1.8 0.3-2.8v-39c0-0.9-0.1-1.8-0.3-2.6-0.2-0.6-0.5-1.1-0.9-1.5-0.4-0.3-0.8-0.6-1.3-0.7s-1-0.2-1.6-0.2h-3.4v-4.3h28v4.3h-3.4c-0.5 0-1.1 0.1-1.6 0.2s-1 0.4-1.3 0.7c-0.4 0.5-0.7 1-0.9 1.6-0.3 0.9-0.4 1.8-0.3 2.8v15.6h21.2v-15.6c0-0.9-0.1-1.9-0.3-2.8-0.2-0.6-0.5-1.1-0.9-1.6-0.4-0.4-0.8-0.6-1.3-0.7-0.7-0.2-1.4-0.2-2.1-0.2h-3.4v-4.3h28v4.3h-3.4c-0.5 0-1.1 0-1.6 0.2-0.5 0.1-1 0.4-1.3 0.7-0.4 0.4-0.7 1-0.9 1.6-0.2 0.9-0.3 1.8-0.3 2.8v39.2c0 0.9 0.1 1.7 0.3 2.6 0.2 0.6 0.5 1.1 0.9 1.4s0.8 0.5 1.3 0.6 1 0.1 1.6 0h3.4v4.6h-28z"/>
<path d="m144.1 53.9h16.2c1.4 0.1 2.7-0.6 3.6-1.7 0.4-0.6 0.8-1.3 1-2 0.3-0.8 0.5-1.6 0.6-2.5l0.6-3.8h5.6l-0.6 15h-47.5v-4.4h3.4c0.5 0.1 1.1 0.1 1.6 0s0.9-0.3 1.3-0.6c0.5-0.5 0.8-1 0.9-1.7 0.2-0.8 0.3-1.7 0.3-2.6v-39.1c0-0.9-0.1-1.9-0.3-2.8-0.2-0.6-0.5-1.1-0.9-1.6-0.4-0.4-0.8-0.6-1.3-0.7-0.6-0.1-1.1-0.2-1.7-0.2h-3.4v-4.2h45l0.3 14.9h-5.6l-0.4-3.8c-0.1-1.6-0.6-3.2-1.5-4.5-0.9-1.1-2.3-1.7-3.7-1.6h-13.6v20.2h19.2v4.8h-19.2v22.9z"/>
<path fill="#CC0000" d="M195,59h-5.8V1h5.8V59z"/>
<path d="m267.1 28.9c0 4.1-0.6 8.2-1.8 12.2-1.1 3.5-3 6.7-5.5 9.5-2.5 2.7-5.6 4.8-9 6.2-4 1.6-8.2 2.4-12.4 2.3h-26.8v-4.4h3.4c0.6 0 1.2-0.1 1.8-0.2 0.5-0.1 1-0.4 1.3-0.7 0.4-0.4 0.7-1 0.9-1.6 0.2-0.9 0.3-1.8 0.3-2.8v-39.2c0-0.9-0.1-1.8-0.3-2.6-0.2-0.6-0.5-1.1-0.9-1.5-0.4-0.3-0.8-0.6-1.3-0.7s-1.1-0.2-1.6-0.2h-3.4v-4.2h26.6c4.1-0.1 8.2 0.5 12.1 1.8 3.4 1.1 6.4 2.9 9 5.3 2.5 2.4 4.5 5.4 5.7 8.7 1.3 3.9 2 8 1.9 12.1zm-13.7 0c0.4-6.1-1-12.1-4.2-17.3-3-3.8-7.7-6-12.5-5.7h-4.7v47.9h4.5c2.5 0.1 5-0.5 7.2-1.6 2.2-1.2 4-2.9 5.3-5 1.5-2.4 2.6-5.1 3.2-7.9 0.8-3.3 1.2-6.9 1.2-10.4z"/>
<path d="m272.4 59v-4.4h3.4c0.6 0 1.1-0.1 1.7-0.2 0.5-0.1 1-0.4 1.3-0.7 0.4-0.4 0.7-1 0.9-1.6 0.2-0.9 0.3-1.8 0.3-2.8v-38.7c0-0.9-0.1-1.9-0.3-2.8-0.2-0.6-0.5-1.1-0.9-1.6-0.4-0.4-0.8-0.6-1.3-0.7s-1.1-0.2-1.7-0.2h-3.4v-4.3h28v4.3h-3.4c-0.6 0-1.1 0-1.7 0.2-0.5 0.1-1 0.4-1.3 0.7-0.4 0.4-0.7 1-0.9 1.6-0.2 0.9-0.3 1.8-0.3 2.8v38.7c0 0.9 0.1 1.9 0.3 2.8 0.2 0.6 0.5 1.1 0.9 1.6 0.4 0.4 0.8 0.6 1.3 0.7s1.1 0.2 1.7 0.2h3.4v4.4h-28z"/>
<path d="m353.2 18.2c0 2.4-0.4 4.8-1.3 7-0.9 2.3-2.3 4.3-4.1 5.9-2.2 1.9-4.7 3.3-7.4 4.1-3.6 1.1-7.4 1.6-11.1 1.5h-2.7v13c0 0.9 0.1 1.7 0.4 2.6 0.2 0.6 0.5 1.1 0.9 1.4s0.9 0.5 1.4 0.6 1.1 0.1 1.6 0h5v4.7h-29.6v-4.4h3.4c0.5 0 1.1-0.1 1.6-0.2s1-0.4 1.3-0.7c0.4-0.4 0.7-1 0.9-1.6 0.2-0.9 0.3-1.8 0.3-2.8v-39.1c0-0.9-0.1-1.8-0.3-2.6-0.2-0.6-0.5-1.1-0.9-1.5-0.4-0.3-0.8-0.6-1.3-0.7s-1.1-0.2-1.6-0.2h-3.4v-4.2h24.9c3.3-0.1 6.6 0.3 9.8 1.2 2.4 0.7 4.7 1.8 6.7 3.4 1.8 1.4 3.2 3.3 4.1 5.4 0.9 2.2 1.4 4.7 1.4 7.2zm-26.6 13.8h2c1.7 0 3.5-0.2 5.1-0.7 1.3-0.5 2.5-1.3 3.4-2.4 1-1.2 1.6-2.7 2-4.2 0.4-2 0.6-4.1 0.6-6.2 0-1.9-0.2-3.8-0.5-5.6-0.3-1.4-0.9-2.8-1.7-3.9-0.8-1-1.8-1.8-3-2.3-1.5-0.6-3-0.8-4.6-0.8h-3.1v26.1z"/>
<path d="m356.8 59v-4.4h3.4c0.6 0 1.1 0 1.7-0.2 0.5-0.1 1-0.4 1.3-0.7 0.4-0.4 0.7-1 0.9-1.6 0.2-0.9 0.3-1.8 0.3-2.8v-38.8c0-0.9-0.1-1.9-0.3-2.8-0.2-0.6-0.5-1.1-0.9-1.6-0.4-0.4-0.8-0.6-1.3-0.7s-1.1-0.2-1.7-0.2h-3.4v-4.2h28v4.3h-3.4c-0.5 0-1.1 0.1-1.6 0.2s-0.9 0.4-1.3 0.7c-0.4 0.4-0.7 0.9-0.9 1.5-0.3 0.8-0.4 1.7-0.3 2.6v43.7h15.1c1.7 0.1 3.3-0.6 4.4-1.8 1.2-1.5 2-3.3 2.3-5.3l1.3-6.1h4.5l-0.5 18.2h-47.6z"/>
<path d="m466 29.9c0.1 4.2-0.6 8.3-1.8 12.3-1.1 3.5-2.9 6.7-5.3 9.4-2.4 2.6-5.3 4.7-8.6 6.1-3.7 1.5-7.7 2.2-11.7 2.1-4.1 0.1-8.2-0.6-12.1-2.1-3.3-1.3-6.2-3.4-8.6-6.1-2.4-2.8-4.1-6-5.1-9.4-1.2-4-1.8-8.1-1.7-12.3 0-4.1 0.5-8.2 1.7-12.2 1-3.5 2.8-6.6 5.1-9.4 2.4-2.6 5.3-4.7 8.6-6 3.9-1.5 8-2.2 12.1-2.1 4-0.1 8 0.7 11.7 2.1 3.3 1.3 6.2 3.4 8.6 6 2.4 2.7 4.2 5.9 5.3 9.4 1.2 3.9 1.8 8.1 1.8 12.2zm-41.3 0c0 3.5 0.2 6.9 0.7 10.4 0.4 2.7 1.2 5.3 2.4 7.7 1 2 2.5 3.6 4.3 4.8 4 2.2 8.8 2.2 12.8 0 1.8-1.2 3.3-2.9 4.3-4.8 1.2-2.4 2-5 2.4-7.7 0.5-3.4 0.8-6.9 0.7-10.4 0-3.5-0.2-6.9-0.7-10.4-0.4-2.7-1.2-5.3-2.4-7.7-1-2-2.4-3.6-4.2-4.8-1.9-1.1-4.1-1.7-6.4-1.7-4.6-0.3-8.9 2.3-10.8 6.4-1.2 2.4-2 5-2.4 7.7-0.5 3.5-0.7 7-0.7 10.5z"/>
<path d="m519.8 59v-4.4h0.8c0.7 0.1 1.5 0.1 2.2 0 0.6-0.1 1.1-0.3 1.6-0.6 0.4-0.4 0.8-0.8 0.9-1.4 0.2-0.8 0.3-1.6 0.3-2.4v-41.2l-16.3 50h-5.5l-17.1-49.9v40.4c0 0.9 0.1 1.9 0.4 2.8 0.2 0.6 0.6 1.2 1.2 1.6s1.2 0.6 1.9 0.7c0.8 0.1 1.7 0.2 2.5 0.2h0.5v4.2h-20.2v-4.4h3.4c0.5 0.1 1.1 0.1 1.6 0s0.9-0.3 1.3-0.6c0.4-0.4 0.7-0.9 0.9-1.4 0.2-0.8 0.3-1.7 0.3-2.6v-39.8c0-0.9-0.1-1.8-0.3-2.6-0.2-0.6-0.5-1.1-0.9-1.5-0.4-0.3-0.8-0.6-1.3-0.7s-1.1-0.2-1.6-0.2h-3.4v-4.2h23.6l13.4 39.2 12.8-39.2h22.9v4.3h-3.4c-0.5 0-1.1 0.1-1.6 0.2s-1 0.4-1.3 0.7c-0.4 0.4-0.7 1-0.9 1.6-0.2 0.9-0.3 1.8-0.3 2.8v38.8c0 0.9 0.1 1.9 0.3 2.8 0.2 0.6 0.5 1.1 0.9 1.6 0.4 0.4 0.8 0.6 1.3 0.7s1.1 0.2 1.6 0.2h3.4v4.3h-25.9z"/>
<path d="m566.2 39.9-2.3 6.9c-0.2 0.7-0.4 1.4-0.6 2.3-0.2 0.8-0.3 1.5-0.3 2.3 0 0.5 0.1 1 0.3 1.4s0.5 0.7 0.8 1c0.4 0.3 0.8 0.5 1.2 0.6s0.9 0.2 1.4 0.2h3.4v4.4h-21.1v-4.4h1c0.7 0 1.3-0.1 2-0.2 0.6-0.2 1.2-0.5 1.7-0.9 0.6-0.5 1.1-1.1 1.4-1.8 0.6-0.9 1-1.9 1.4-3l17.5-47.7h11.1l16.9 47.8c0.3 1 0.7 1.9 1.2 2.8 0.4 0.7 0.8 1.3 1.4 1.8 0.5 0.4 1 0.7 1.7 0.9 0.6 0.2 1.2 0.3 1.8 0.3h1.4v4.4h-26.8v-4.4h3.2c0.4 0 0.8-0.1 1.2-0.2s0.8-0.3 1.1-0.5c0.3-0.3 0.6-0.6 0.8-1s0.3-0.9 0.3-1.4c0-0.6-0.1-1.3-0.2-1.9-0.2-0.6-0.3-1.1-0.5-1.6l-2.9-8.1h-19.5zm13.8-18.3-1.8-6.2c-0.3-1.1-0.6-2.1-0.9-3.1s-0.5-2-0.7-3c-0.2 0.8-0.5 1.7-0.8 2.7l-1 3-1.1 3.1-1 3-4.8 13.7h16.3l-4.2-13.2z"/>
<path d="m640.2 49.3c0 0.9 0.1 1.9 0.3 2.8 0.2 0.6 0.5 1.1 0.9 1.6 0.4 0.4 0.8 0.6 1.3 0.7s1.1 0.2 1.6 0.2h3.4v4.4h-28v-4.4h3.4c0.6 0 1.1 0 1.7-0.2 0.5-0.1 1-0.4 1.3-0.7 0.4-0.4 0.7-1 0.9-1.6 0.2-0.9 0.3-1.8 0.3-2.8v-43.3h-6.5c-1 0-2 0.1-3 0.4-0.7 0.2-1.4 0.6-2 1.1-0.5 0.5-0.9 1.1-1.1 1.8-0.3 0.8-0.4 1.6-0.5 2.4l-0.5 5h-5.4l0.2-15.7h50.6l0.4 15.7h-5.5l-0.6-4.9c-0.1-0.8-0.3-1.6-0.5-2.4-0.2-0.7-0.6-1.3-1.1-1.8-0.6-0.5-1.3-0.9-2-1.1-1-0.3-2-0.4-3-0.4h-6.5v43.2h-0.1z"/>
</svg>
