<?xml version="1.0" encoding="UTF-8"?>
<!DOCTYPE svg PUBLIC "-//W3C//DTD SVG 1.1//EN" "http://www.w3.org/Graphics/SVG/1.1/DTD/svg11.dtd">
<svg xmlns="http://www.w3.org/2000/svg" version="1.1" width="5100px" height="430px" style="shape-rendering:geometricPrecision; text-rendering:geometricPrecision; image-rendering:optimizeQuality; fill-rule:evenodd; clip-rule:evenodd" xmlns:xlink="http://www.w3.org/1999/xlink">
<g><path style="opacity:1" fill="#fefefe" d="M -0.5,-0.5 C 1699.5,-0.5 3399.5,-0.5 5099.5,-0.5C 5099.5,142.833 5099.5,286.167 5099.5,429.5C 3399.5,429.5 1699.5,429.5 -0.5,429.5C -0.5,286.167 -0.5,142.833 -0.5,-0.5 Z"/></g>
<g><path style="opacity:1" fill="#878584" d="M 3333.5,50.5 C 3293.49,49.8391 3253.82,50.5058 3214.5,52.5C 3213.6,51.791 3213.26,50.791 3213.5,49.5C 3253.67,49.1681 3293.67,49.5014 3333.5,50.5 Z"/></g>
<g><path style="opacity:1" fill="#878685" d="M 3791.5,50.5 C 3686.49,49.8355 3581.83,50.5022 3477.5,52.5C 3476.6,51.791 3476.26,50.791 3476.5,49.5C 3581.67,49.1672 3686.67,49.5005 3791.5,50.5 Z"/></g>
<g><path style="opacity:1" fill="#868584" d="M 4279.5,50.5 C 4182.83,49.8357 4086.49,50.5023 3990.5,52.5C 3989.6,51.791 3989.26,50.791 3989.5,49.5C 4086.33,49.1672 4183,49.5006 4279.5,50.5 Z"/></g>
<g><path style="opacity:1" fill="#8c8b8a" d="M 4732.5,50.5 C 4833.67,49.5006 4935,49.1672 5036.5,49.5C 5036.83,87.0037 5036.5,124.337 5035.5,161.5C 5035.5,124.5 5035.5,87.5 5035.5,50.5C 4934.5,50.5 4833.5,50.5 4732.5,50.5 Z"/></g>
<g><path style="opacity:1" fill="#9a9998" d="M 355.5,50.5 C 258.167,50.5 160.833,50.5 63.5,50.5C 63.5,86.1667 63.5,121.833 63.5,157.5C 62.5016,121.671 62.1682,85.6705 62.5,49.5C 160.335,49.1672 258.001,49.5006 355.5,50.5 Z"/></g>
<g><path style="opacity:1" fill="#110f0d" d="M 355.5,50.5 C 355.5,86.1667 355.5,121.833 355.5,157.5C 353.833,157.5 352.167,157.5 350.5,157.5C 343.347,139.189 336.18,120.855 329,102.5C 323.434,88.7032 314.934,77.0365 303.5,67.5C 292.813,59.822 280.813,55.822 267.5,55.5C 257.347,54.5058 247.014,54.1724 236.5,54.5C 236.167,148.668 236.501,242.668 237.5,336.5C 239.416,355.164 249.416,366.997 267.5,372C 274.042,373.924 280.709,375.09 287.5,375.5C 287.5,376.833 287.5,378.167 287.5,379.5C 235.5,379.5 183.5,379.5 131.5,379.5C 131.5,378.167 131.5,376.833 131.5,375.5C 143.903,374.318 155.57,370.818 166.5,365C 176.965,356.341 181.965,345.175 181.5,331.5C 182.499,239.335 182.833,147.002 182.5,54.5C 171.986,54.1724 161.653,54.5058 151.5,55.5C 130.94,55.6785 114.606,64.0118 102.5,80.5C 96.9061,88.6825 92.0728,97.3491 88,106.5C 80.9187,123.321 74.4187,140.321 68.5,157.5C 66.8333,157.5 65.1667,157.5 63.5,157.5C 63.5,121.833 63.5,86.1667 63.5,50.5C 160.833,50.5 258.167,50.5 355.5,50.5 Z"/></g>
<g><path style="opacity:1" fill="#12100e" d="M 375.5,50.5 C 402.167,50.5 428.833,50.5 455.5,50.5C 455.333,97.8345 455.5,145.168 456,192.5C 456.717,191.956 457.217,191.289 457.5,190.5C 478.171,158.543 507.504,144.71 545.5,149C 581.012,157.518 600.512,180.018 604,216.5C 604.03,263.532 604.696,310.532 606,357.5C 608.833,364.333 613.667,369.167 620.5,372C 624.808,373.327 629.141,374.493 633.5,375.5C 633.5,376.833 633.5,378.167 633.5,379.5C 597.167,379.5 560.833,379.5 524.5,379.5C 524.5,378.167 524.5,376.833 524.5,375.5C 530.651,373.838 536.651,371.671 542.5,369C 547.219,365.611 550.386,361.111 552,355.5C 552.667,310.833 552.667,266.167 552,221.5C 544.845,188.164 524.345,173.997 490.5,179C 478.246,182.876 467.079,188.709 457,196.5C 456.333,249.167 456.333,301.833 457,354.5C 458.173,360.667 461.34,365.501 466.5,369C 472.469,372.267 478.803,374.434 485.5,375.5C 485.5,376.5 485.5,377.5 485.5,378.5C 448.906,379.493 412.239,379.827 375.5,379.5C 375.5,378.167 375.5,376.833 375.5,375.5C 382.443,373.686 389.11,371.186 395.5,368C 398.614,364.94 401.114,361.44 403,357.5C 404.152,309.698 404.652,261.864 404.5,214C 404.333,168.167 404.167,122.333 404,76.5C 402.45,69.9605 398.95,64.7938 393.5,61C 387.714,58.4603 381.714,56.627 375.5,55.5C 375.5,53.8333 375.5,52.1667 375.5,50.5 Z"/></g>
<g><path style="opacity:1" fill="#6f6e6d" d="M 375.5,50.5 C 402.328,49.5021 429.328,49.1688 456.5,49.5C 456.168,96.6696 456.501,143.67 457.5,190.5C 457.217,191.289 456.717,191.956 456,192.5C 455.5,145.168 455.333,97.8345 455.5,50.5C 428.833,50.5 402.167,50.5 375.5,50.5 Z"/></g>
<g><path style="opacity:1" fill="#ed1e30" d="M 1092.5,49.5 C 1166.16,46.9038 1221.99,76.9038 1260,139.5C 1293.5,209.779 1285.84,275.113 1237,335.5C 1184.15,390.903 1120.98,407.403 1047.5,385C 987.027,360.183 950.194,315.683 937,251.5C 928.551,186.496 948.718,132.329 997.5,89C 1025.54,66.9174 1057.21,53.7507 1092.5,49.5 Z"/></g>
<g><path style="opacity:1" fill="#11100e" d="M 1464.5,392.5 C 1410.16,393.162 1356.16,392.496 1302.5,390.5C 1314.42,388.853 1325.76,385.353 1336.5,380C 1345.07,374.679 1350.57,367.179 1353,357.5C 1354.15,311.691 1354.65,265.858 1354.5,220C 1354.33,176.833 1354.17,133.667 1354,90.5C 1351.82,77.9996 1345.32,68.4996 1334.5,62C 1323.69,57.717 1312.69,54.217 1301.5,51.5C 1355.83,50.1667 1410.17,50.1667 1464.5,51.5C 1456.54,53.7719 1448.54,55.9386 1440.5,58C 1424.47,64.0369 1414.97,75.5369 1412,92.5C 1411.33,178.167 1411.33,263.833 1412,349.5C 1414.16,368.325 1424.32,380.492 1442.5,386C 1449.25,387.776 1456.09,389.276 1463,390.5C 1464.03,390.836 1464.53,391.503 1464.5,392.5 Z"/></g>
<g><path style="opacity:1" fill="#12110f" d="M 1554.5,108.5 C 1554.22,107.711 1553.72,107.044 1553,106.5C 1552.17,119.673 1552.34,132.673 1553.5,145.5C 1553.33,195.834 1553.5,246.168 1554,296.5C 1553.87,319.416 1558.53,341.083 1568,361.5C 1574.38,371.884 1583.22,379.384 1594.5,384C 1602.05,386.637 1609.72,388.804 1617.5,390.5C 1573.85,392.495 1529.85,393.161 1485.5,392.5C 1485.58,391.25 1486.24,390.417 1487.5,390C 1500.5,387.757 1512.5,383.09 1523.5,376C 1533.48,367.211 1540.32,356.377 1544,343.5C 1546.47,332.289 1548.13,320.955 1549,309.5C 1549.67,240.833 1549.67,172.167 1549,103.5C 1537.8,90.6324 1525.63,78.799 1512.5,68C 1500.66,60.4469 1487.99,54.9469 1474.5,51.5C 1514.16,50.3334 1553.83,50.1667 1593.5,51C 1604.56,68.0576 1616.39,84.5576 1629,100.5C 1686.29,168.794 1743.96,236.794 1802,304.5C 1802.14,241.166 1801.81,177.833 1801,114.5C 1800.31,96.4024 1794.14,80.5691 1782.5,67C 1779,64.417 1775.34,62.0836 1771.5,60C 1760.29,56.6322 1748.95,53.7988 1737.5,51.5C 1848.17,50.3333 1958.83,50.1667 2069.5,51C 2110.36,53.838 2147.03,67.5047 2179.5,92C 2228.09,135.455 2246.59,189.622 2235,254.5C 2220.4,318.106 2182.23,360.606 2120.5,382C 2099.94,388.081 2078.94,391.747 2057.5,393C 1996.5,393.5 1935.5,393.667 1874.5,393.5C 1874.5,392.5 1874.5,391.5 1874.5,390.5C 1884.4,389.419 1894.07,387.253 1903.5,384C 1917.89,377.087 1925.72,365.587 1927,349.5C 1927.67,269.5 1927.67,189.5 1927,109.5C 1921.87,67.3999 1898.04,48.5665 1855.5,53C 1827.84,56.994 1811.67,72.8274 1807,100.5C 1805.52,200.474 1805.02,300.474 1805.5,400.5C 1804.45,400.649 1803.45,400.483 1802.5,400C 1719.7,302.855 1637.03,205.688 1554.5,108.5 Z"/></g>
<g><path style="opacity:1" fill="#110f0e" d="M 2539.5,50.5 C 2540.16,82.8508 2539.49,114.851 2537.5,146.5C 2527.61,128.4 2517.45,110.4 2507,92.5C 2490.58,70.8652 2468.75,58.3652 2441.5,55C 2414.22,52.7158 2386.89,51.8825 2359.5,52.5C 2359.5,106.5 2359.5,160.5 2359.5,214.5C 2377.19,214.76 2394.86,214.26 2412.5,213C 2435.36,212.835 2451.86,202.668 2462,182.5C 2467.53,169.065 2472.37,155.398 2476.5,141.5C 2477.83,165.991 2478.5,190.824 2478.5,216C 2478.5,241.176 2477.83,266.009 2476.5,290.5C 2471.98,273.422 2465.48,257.089 2457,241.5C 2449.46,230.318 2438.96,223.484 2425.5,221C 2411.89,219.227 2398.22,218.393 2384.5,218.5C 2376.35,217.507 2368.02,217.174 2359.5,217.5C 2359.17,260.003 2359.5,302.337 2360.5,344.5C 2360.31,354.716 2362.48,364.382 2367,373.5C 2373.27,382.389 2381.77,387.889 2392.5,390C 2407.83,390.667 2423.17,390.667 2438.5,390C 2475.68,388.671 2504.18,372.504 2524,341.5C 2532.87,326.405 2541.71,311.405 2550.5,296.5C 2552.49,328.149 2553.16,360.149 2552.5,392.5C 2451.83,392.5 2351.17,392.5 2250.5,392.5C 2250.62,391.414 2251.29,390.747 2252.5,390.5C 2263.32,389.38 2273.65,386.546 2283.5,382C 2295.23,374.385 2301.73,363.551 2303,349.5C 2303.17,306.667 2303.33,263.833 2303.5,221C 2303.65,176.135 2303.15,131.302 2302,86.5C 2298.86,74.0197 2291.36,65.1864 2279.5,60C 2269.77,57.2539 2260.1,54.4206 2250.5,51.5C 2346.83,50.5 2443.16,50.1667 2539.5,50.5 Z"/></g>
<g><path style="opacity:1" fill="#868584" d="M 2539.5,50.5 C 2540.5,82.6624 2540.83,114.996 2540.5,147.5C 2539.21,147.737 2538.21,147.404 2537.5,146.5C 2539.49,114.851 2540.16,82.8508 2539.5,50.5 Z"/></g>
<g><path style="opacity:1" fill="#12100e" d="M 2593.5,50.5 C 2648.83,50.3333 2704.17,50.5 2759.5,51C 2787.82,53.4362 2813.49,62.7695 2836.5,79C 2871.64,110.065 2880.81,147.565 2864,191.5C 2849.94,217.885 2828.78,236.052 2800.5,246C 2774.41,253.798 2747.74,256.965 2720.5,255.5C 2720.5,254.5 2720.5,253.5 2720.5,252.5C 2774.09,250.079 2803.59,222.079 2809,168.5C 2813.71,135.685 2806.38,106.018 2787,79.5C 2772.19,63.9953 2754.03,55.162 2732.5,53C 2722.84,52.5002 2713.17,52.3335 2703.5,52.5C 2703.33,151.501 2703.5,250.501 2704,349.5C 2705.57,368.067 2715.4,379.567 2733.5,384C 2743.05,386.743 2752.72,388.91 2762.5,390.5C 2762.5,391.5 2762.5,392.5 2762.5,393.5C 2706.17,393.5 2649.83,393.5 2593.5,393.5C 2593.5,392.5 2593.5,391.5 2593.5,390.5C 2605,389.042 2616,385.875 2626.5,381C 2637.93,373.649 2644.43,363.149 2646,349.5C 2646.17,306.667 2646.33,263.833 2646.5,221C 2646.65,176.135 2646.15,131.302 2645,86.5C 2642.52,77.6848 2637.68,70.5181 2630.5,65C 2619.89,59.02 2608.56,55.02 2596.5,53C 2594.88,52.7645 2593.88,51.9311 2593.5,50.5 Z"/></g>
<g><path style="opacity:1" fill="#11100e" d="M 2886.5,50.5 C 2982.83,50.5 3079.17,50.5 3175.5,50.5C 3176.16,82.8508 3175.49,114.851 3173.5,146.5C 3162.95,127.732 3152.11,109.066 3141,90.5C 3122.42,67.6254 3098.25,55.4588 3068.5,54C 3044.19,52.6062 3019.86,52.1062 2995.5,52.5C 2995.5,106.5 2995.5,160.5 2995.5,214.5C 3013.52,214.743 3031.52,214.243 3049.5,213C 3070.28,212.51 3085.78,203.344 3096,185.5C 3102.5,171.348 3107.83,156.682 3112,141.5C 3112.41,141.043 3112.91,140.709 3113.5,140.5C 3114.83,190.833 3114.83,241.167 3113.5,291.5C 3109.68,282.872 3106.51,273.872 3104,264.5C 3099.5,251.334 3092.33,239.834 3082.5,230C 3075.88,226.191 3068.88,223.191 3061.5,221C 3047.89,219.227 3034.22,218.393 3020.5,218.5C 3012.35,217.507 3004.02,217.174 2995.5,217.5C 2995.17,260.337 2995.5,303.003 2996.5,345.5C 2995.51,368.972 3006.17,383.805 3028.5,390C 3051.29,391.346 3073.95,390.346 3096.5,387C 3124.55,379.937 3146.05,364.104 3161,339.5C 3169.72,325.394 3177.88,311.061 3185.5,296.5C 3186.5,296.5 3187.5,296.5 3188.5,296.5C 3188.5,328.5 3188.5,360.5 3188.5,392.5C 3087.49,393.164 2986.83,392.498 2886.5,390.5C 2898.06,389.586 2909.06,386.753 2919.5,382C 2932.7,373.096 2939.2,360.596 2939,344.5C 2939.17,303.333 2939.33,262.167 2939.5,221C 2939.64,176.48 2939.14,131.98 2938,87.5C 2935.18,74.0152 2927.35,64.8485 2914.5,60C 2906,57.0424 2897.34,54.7091 2888.5,53C 2887.24,52.5831 2886.58,51.7498 2886.5,50.5 Z"/></g>
<g><path style="opacity:1" fill="#a9a9a8" d="M 2886.5,50.5 C 2983,49.5006 3079.67,49.1672 3176.5,49.5C 3176.5,82.1667 3176.5,114.833 3176.5,147.5C 3175.21,147.737 3174.21,147.404 3173.5,146.5C 3175.49,114.851 3176.16,82.8508 3175.5,50.5C 3079.17,50.5 2982.83,50.5 2886.5,50.5 Z"/></g>
<g><path style="opacity:1" fill="#12100e" d="M 3333.5,50.5 C 3338.38,59.5502 3343.88,68.2168 3350,76.5C 3358.43,87.6817 3367.09,98.6817 3376,109.5C 3430.7,174.358 3485.53,239.025 3540.5,303.5C 3540.78,304.289 3541.28,304.956 3542,305.5C 3542.83,283.329 3542.66,261.329 3541.5,239.5C 3541.82,196.489 3541.32,153.489 3540,110.5C 3536.71,72.376 3515.87,53.0427 3477.5,52.5C 3581.83,50.5022 3686.49,49.8355 3791.5,50.5C 3844.04,50.2844 3890.04,67.1177 3929.5,101C 3970.67,144.193 3985.83,195.36 3975,254.5C 3958.78,322.058 3917.28,365.558 3850.5,385C 3833.14,389.651 3815.47,392.151 3797.5,392.5C 3736.16,393.163 3675.16,392.496 3614.5,390.5C 3627.78,389.598 3640.11,385.765 3651.5,379C 3658.7,373.088 3663.2,365.588 3665,356.5C 3666.65,272.197 3666.98,187.864 3666,103.5C 3662.04,74.8752 3645.87,58.0419 3617.5,53C 3594.61,48.9669 3575.11,55.1336 3559,71.5C 3552.53,80.118 3548.53,89.7847 3547,100.5C 3545.52,200.477 3545.02,300.477 3545.5,400.5C 3541.05,398.582 3537.22,395.582 3534,391.5C 3454.01,296.515 3373.68,201.848 3293,107.5C 3292.97,170.833 3293.3,234.166 3294,297.5C 3294.08,319.407 3298.41,340.407 3307,360.5C 3309.78,364.951 3312.95,369.117 3316.5,373C 3328.55,382.412 3342.22,388.246 3357.5,390.5C 3313.85,392.495 3269.85,393.161 3225.5,392.5C 3225.58,391.25 3226.24,390.417 3227.5,390C 3237.15,387.922 3246.49,384.922 3255.5,381C 3268.37,373.123 3277.2,361.956 3282,347.5C 3285.96,333.131 3288.3,318.465 3289,303.5C 3289.67,236.833 3289.67,170.167 3289,103.5C 3278.13,90.9655 3266.3,79.4655 3253.5,69C 3241.69,60.7633 3228.69,55.2633 3214.5,52.5C 3253.82,50.5058 3293.49,49.8391 3333.5,50.5 Z"/></g>
<g><path style="opacity:1" fill="#12100e" d="M 4279.5,50.5 C 4279.83,82.8402 4279.5,115.174 4278.5,147.5C 4267.76,129.699 4257.26,111.699 4247,93.5C 4235.12,75.9767 4218.95,64.4767 4198.5,59C 4190.58,56.9494 4182.58,55.2828 4174.5,54C 4149.52,52.6273 4124.52,52.1273 4099.5,52.5C 4099.5,106.5 4099.5,160.5 4099.5,214.5C 4117.52,214.743 4135.52,214.243 4153.5,213C 4175.35,212.667 4191.18,202.834 4201,183.5C 4206.99,169.853 4211.99,155.853 4216,141.5C 4216.41,141.043 4216.91,140.709 4217.5,140.5C 4218.83,190.833 4218.83,241.167 4217.5,291.5C 4212.56,276.168 4206.72,261.168 4200,246.5C 4192,232.744 4180.17,224.244 4164.5,221C 4146.56,218.894 4128.56,218.061 4110.5,218.5C 4107.04,217.518 4103.37,217.185 4099.5,217.5C 4099.17,262.67 4099.5,307.67 4100.5,352.5C 4102.05,372.874 4112.71,385.374 4132.5,390C 4153.9,391.128 4175.24,390.461 4196.5,388C 4224.93,381.892 4247.1,366.725 4263,342.5C 4271.67,327.833 4280.33,313.167 4289,298.5C 4289.82,297.177 4290.98,296.511 4292.5,296.5C 4292.5,328.5 4292.5,360.5 4292.5,392.5C 4191.49,393.164 4090.83,392.498 3990.5,390.5C 4001.18,389.414 4011.51,386.914 4021.5,383C 4033.73,376.044 4040.56,365.544 4042,351.5C 4042.17,308 4042.33,264.5 4042.5,221C 4042.65,175.469 4042.15,129.969 4041,84.5C 4038.49,75.997 4033.66,69.1636 4026.5,64C 4015.12,58.1408 4003.12,54.3075 3990.5,52.5C 4086.49,50.5023 4182.83,49.8357 4279.5,50.5 Z"/></g>
<g><path style="opacity:1" fill="#12100e" d="M 4398.5,108.5 C 4398.22,107.711 4397.72,107.044 4397,106.5C 4396.17,119.673 4396.34,132.673 4397.5,145.5C 4397.33,195.834 4397.5,246.168 4398,296.5C 4397.86,319.381 4402.53,341.048 4412,361.5C 4418.38,371.884 4427.22,379.384 4438.5,384C 4446.05,386.637 4453.72,388.804 4461.5,390.5C 4440.01,391.833 4418.18,392.5 4396,392.5C 4373.82,392.5 4351.99,391.833 4330.5,390.5C 4343.75,387.941 4356.08,383.107 4367.5,376C 4377.48,367.211 4384.32,356.377 4388,343.5C 4390.47,332.289 4392.13,320.955 4393,309.5C 4393.67,240.833 4393.67,172.167 4393,103.5C 4381.1,89.5942 4367.93,77.0942 4353.5,66C 4343.02,59.5061 4331.69,55.1728 4319.5,53C 4319.04,52.586 4318.71,52.086 4318.5,51.5C 4358.16,50.3334 4397.83,50.1667 4437.5,51C 4448.56,68.0576 4460.39,84.5576 4473,100.5C 4530.29,168.794 4587.96,236.794 4646,304.5C 4646.36,243.831 4646.03,183.165 4645,122.5C 4643.82,106.27 4639.49,90.9368 4632,76.5C 4626.69,68.8515 4619.85,63.0182 4611.5,59C 4601.72,55.6921 4591.72,53.1921 4581.5,51.5C 4625.5,50.1667 4669.5,50.1667 4713.5,51.5C 4678.29,53.5471 4657.79,71.8805 4652,106.5C 4651.66,111.547 4651,116.547 4650,121.5C 4649.5,214.499 4649.33,307.499 4649.5,400.5C 4648.45,400.649 4647.45,400.483 4646.5,400C 4563.7,302.855 4481.03,205.688 4398.5,108.5 Z"/></g>
<g><path style="opacity:1" fill="#110f0d" d="M 4732.5,50.5 C 4833.5,50.5 4934.5,50.5 5035.5,50.5C 5035.5,87.5 5035.5,124.5 5035.5,161.5C 5033.66,160.878 5032.5,159.544 5032,157.5C 5024.24,137.223 5015.91,117.223 5007,97.5C 4994.62,71.4488 4974.12,56.6154 4945.5,53C 4934.51,52.5002 4923.51,52.3335 4912.5,52.5C 4912.02,154.19 4912.52,255.857 4914,357.5C 4919.09,374.249 4930.25,384.415 4947.5,388C 4953.15,389.016 4958.82,389.85 4964.5,390.5C 4938.01,391.833 4911.18,392.5 4884,392.5C 4856.82,392.5 4829.99,391.833 4803.5,390.5C 4815.56,389.974 4826.89,386.807 4837.5,381C 4845.76,375.08 4851.26,367.247 4854,357.5C 4855.48,255.857 4855.98,154.19 4855.5,52.5C 4840.07,51.9043 4824.74,52.7377 4809.5,55C 4787.12,62.0423 4770.96,76.209 4761,97.5C 4751.54,118.747 4742.37,140.081 4733.5,161.5C 4732.5,124.506 4732.17,87.506 4732.5,50.5 Z"/></g>
<g><path style="opacity:1" fill="#fefefe" d="M 1984.5,52.5 C 2109.14,40.6546 2172.48,97.1546 2174.5,222C 2175.41,258.782 2167.91,293.615 2152,326.5C 2129.93,364.643 2096.76,385.81 2052.5,390C 2039.17,390.667 2025.83,390.667 2012.5,390C 1997.45,386.279 1988.61,376.779 1986,361.5C 1984.52,258.521 1984.02,155.521 1984.5,52.5 Z"/></g>
<g><path style="opacity:1" fill="#fefefe" d="M 3723.5,52.5 C 3743.17,52.3334 3762.84,52.5 3782.5,53C 3848.68,59.0099 3890.18,94.1765 3907,158.5C 3920.61,214.784 3916.28,269.451 3894,322.5C 3875.69,357.936 3846.86,379.77 3807.5,388C 3789.26,390.437 3770.92,391.104 3752.5,390C 3739.94,387.108 3731.44,379.608 3727,367.5C 3725.41,362.299 3724.41,356.966 3724,351.5C 3723.5,251.834 3723.33,152.167 3723.5,52.5 Z"/></g>
<g><path style="opacity:1" fill="#8b8a89" d="M 151.5,55.5 C 161.653,54.5058 171.986,54.1724 182.5,54.5C 182.833,147.002 182.499,239.335 181.5,331.5C 181.5,239.5 181.5,147.5 181.5,55.5C 171.5,55.5 161.5,55.5 151.5,55.5 Z"/></g>
<g><path style="opacity:1" fill="#c2c2c1" d="M 267.5,55.5 C 257.5,55.5 247.5,55.5 237.5,55.5C 237.5,149.167 237.5,242.833 237.5,336.5C 236.501,242.668 236.167,148.668 236.5,54.5C 247.014,54.1724 257.347,54.5058 267.5,55.5 Z"/></g>
<g><path style="opacity:1" fill="#fdf9f9" d="M 1120.5,200.5 C 1127.01,199.038 1126.68,198.371 1119.5,198.5C 1114.18,197.971 1108.84,197.471 1103.5,197C 1111.98,195.371 1120.48,193.871 1129,192.5C 1133.14,193.581 1137.3,194.081 1141.5,194C 1138.48,192.82 1135.48,191.654 1132.5,190.5C 1128.17,189.833 1123.83,189.167 1119.5,188.5C 1124.01,187.975 1128.51,187.308 1133,186.5C 1146.26,190.921 1146.76,189.921 1134.5,183.5C 1130.83,182.833 1127.17,182.167 1123.5,181.5C 1128.17,180.997 1132.84,180.831 1137.5,181C 1140.72,182.955 1144.05,184.288 1147.5,185C 1144.6,181.934 1141.6,179.101 1138.5,176.5C 1136.17,175.833 1133.83,175.167 1131.5,174.5C 1134.78,173.508 1138.11,173.341 1141.5,174C 1144.33,176.167 1147.17,178.333 1150,180.5C 1147.87,172.044 1142.37,167.544 1133.5,167C 1137.83,166.333 1142.17,166.333 1146.5,167C 1149.67,170.833 1152.83,174.667 1156,178.5C 1154.34,173.498 1152.34,168.498 1150,163.5C 1147.24,161.357 1144.08,160.19 1140.5,160C 1140.17,159.667 1139.83,159.333 1139.5,159C 1143.89,158.756 1148.22,159.256 1152.5,160.5C 1155.53,165.035 1158.37,169.702 1161,174.5C 1159.97,168.403 1158.31,162.403 1156,156.5C 1151.93,154.808 1147.76,153.308 1143.5,152C 1148.46,152.484 1153.46,153.151 1158.5,154C 1161.07,159.637 1163.74,165.137 1166.5,170.5C 1165.47,164.052 1163.97,157.719 1162,151.5C 1157.92,148.874 1153.75,146.374 1149.5,144C 1155.09,145.288 1160.43,147.455 1165.5,150.5C 1167.9,157.538 1170.4,164.538 1173,171.5C 1171.94,163.515 1170.6,155.515 1169,147.5C 1165.64,144.969 1162.48,142.302 1159.5,139.5C 1164.18,140.922 1168.34,143.256 1172,146.5C 1173.81,152.1 1175.31,157.767 1176.5,163.5C 1177.03,165.924 1177.86,168.257 1179,170.5C 1179.14,167.32 1178.64,164.32 1177.5,161.5C 1176.78,155.498 1175.94,149.498 1175,143.5C 1170.17,139.333 1165.33,135.167 1160.5,131C 1166.24,133.804 1171.74,137.304 1177,141.5C 1178.76,145.704 1179.93,150.038 1180.5,154.5C 1181.01,158.553 1181.85,162.553 1183,166.5C 1183.35,160.305 1182.85,154.305 1181.5,148.5C 1181.82,145.428 1181.48,142.428 1180.5,139.5C 1175.38,133.875 1170.04,128.375 1164.5,123C 1164.83,122.833 1165.17,122.667 1165.5,122.5C 1171.81,127.647 1177.98,132.98 1184,138.5C 1184.72,142.145 1185.22,145.812 1185.5,149.5C 1186.17,154.178 1187,158.844 1188,163.5C 1188.28,155.983 1187.78,148.649 1186.5,141.5C 1186.7,139.011 1186.2,136.677 1185,134.5C 1181.29,130.292 1177.79,125.959 1174.5,121.5C 1174.5,120.833 1174.83,120.5 1175.5,120.5C 1180.32,125.492 1184.99,130.659 1189.5,136C 1190.21,141.843 1191.05,147.676 1192,153.5C 1192.67,147.167 1192.67,140.833 1192,134.5C 1188.25,128.931 1184.75,123.264 1181.5,117.5C 1185.65,122.429 1189.81,127.429 1194,132.5C 1195.04,135.757 1195.54,139.09 1195.5,142.5C 1195.37,144.655 1195.87,146.655 1197,148.5C 1197.79,146.288 1197.62,144.288 1196.5,142.5C 1197.03,134.051 1195.03,126.217 1190.5,119C 1190.61,117.278 1191.11,117.112 1192,118.5C 1194.33,122.5 1196.67,126.5 1199,130.5C 1199.33,133.5 1199.67,136.5 1200,139.5C 1200.67,134.833 1200.67,130.167 1200,125.5C 1198.6,120.169 1197.6,114.836 1197,109.5C 1198.69,114.74 1200.86,119.74 1203.5,124.5C 1205.31,119.267 1206.81,113.934 1208,108.5C 1208.3,114.186 1208.3,119.853 1208,125.5C 1211.67,120.167 1215.33,114.833 1219,109.5C 1216.74,114.357 1214.74,119.357 1213,124.5C 1218.93,119.647 1225.09,115.48 1231.5,112C 1221.64,124.231 1212.14,136.731 1203,149.5C 1198.97,160.96 1194.64,172.293 1190,183.5C 1181.72,187.719 1173.22,191.553 1164.5,195C 1163.17,196.333 1161.83,197.667 1160.5,199C 1154.61,200.645 1148.61,201.645 1142.5,202C 1148.17,202.333 1153.83,202.667 1159.5,203C 1165.28,205.057 1170.95,207.39 1176.5,210C 1178.77,212.344 1179.94,215.178 1180,218.5C 1183.17,220.827 1185.34,223.827 1186.5,227.5C 1185.97,230.861 1184.14,233.194 1181,234.5C 1181.5,230.18 1179.67,227.846 1175.5,227.5C 1175.47,229.582 1176.14,231.416 1177.5,233C 1175.07,233.703 1172.74,233.537 1170.5,232.5C 1165.35,231.349 1160.02,231.183 1154.5,232C 1156.44,232.813 1158.44,233.313 1160.5,233.5C 1162.35,233.272 1163.19,233.939 1163,235.5C 1154.44,244.34 1146.6,253.673 1139.5,263.5C 1136.78,265.161 1135.12,267.161 1134.5,269.5C 1136.85,267.812 1138.85,265.812 1140.5,263.5C 1141.79,262.71 1142.96,261.71 1144,260.5C 1143.48,266.895 1143.81,273.228 1145,279.5C 1148.04,282.933 1151.54,285.766 1155.5,288C 1156.46,289.419 1157.29,290.919 1158,292.5C 1158.92,289.692 1158.09,287.525 1155.5,286C 1159.18,285.318 1161.68,286.818 1163,290.5C 1163.62,288.536 1163.12,286.869 1161.5,285.5C 1170.1,283.38 1178.76,281.38 1187.5,279.5C 1195.22,282.528 1202.56,286.361 1209.5,291C 1213.87,295.875 1213.21,299.875 1207.5,303C 1194.45,303.884 1181.45,304.884 1168.5,306C 1169.83,304.667 1171.17,303.333 1172.5,302C 1172.17,301.833 1171.83,301.667 1171.5,301.5C 1159.96,309.172 1147.62,315.006 1134.5,319C 1137.69,316.568 1140.69,313.901 1143.5,311C 1143.17,310.833 1142.83,310.667 1142.5,310.5C 1129.24,321.3 1114.58,329.8 1098.5,336C 1086.92,336.309 1076.09,333.476 1066,327.5C 1065.33,325.5 1065.33,323.5 1066,321.5C 1070.57,319.083 1075.41,317.917 1080.5,318C 1083.52,319.18 1086.52,320.346 1089.5,321.5C 1094.15,322.654 1096.98,325.654 1098,330.5C 1098.44,325.092 1095.94,321.759 1090.5,320.5C 1084.19,316.678 1077.86,312.845 1071.5,309C 1084.92,304.227 1098.59,300.227 1112.5,297C 1110.01,294.92 1107.34,293.086 1104.5,291.5C 1103.45,288.549 1101.78,286.049 1099.5,284C 1098.85,282.56 1098.52,281.06 1098.5,279.5C 1098.31,277.436 1097.81,275.436 1097,273.5C 1096.2,276.039 1096.37,278.372 1097.5,280.5C 1098.2,284.8 1096.53,287.466 1092.5,288.5C 1091.81,284.435 1091.14,280.268 1090.5,276C 1091.7,275.346 1091.7,274.846 1090.5,274.5C 1089.57,275.689 1089.24,277.022 1089.5,278.5C 1089.52,282.56 1089.02,286.56 1088,290.5C 1085.26,291.482 1082.43,292.148 1079.5,292.5C 1080.43,287.178 1080.93,281.844 1081,276.5C 1079.03,282.045 1077.53,287.711 1076.5,293.5C 1073.5,293.5 1070.5,293.5 1067.5,293.5C 1068.5,289.5 1069.5,285.5 1070.5,281.5C 1072.19,279.117 1073.02,276.451 1073,273.5C 1071.82,275.86 1070.65,278.193 1069.5,280.5C 1067.37,284.595 1065.37,288.762 1063.5,293C 1060.58,294.632 1057.58,294.799 1054.5,293.5C 1057.68,287.477 1060.52,281.477 1063,275.5C 1059,281.5 1055,287.5 1051,293.5C 1048.11,295.673 1044.94,296.006 1041.5,294.5C 1045.44,288.947 1049.1,283.28 1052.5,277.5C 1044.45,285.905 1036.62,294.571 1029,303.5C 1028.83,303 1028.67,302.5 1028.5,302C 1035.91,289.847 1043.58,277.847 1051.5,266C 1066.44,259.849 1081.44,253.849 1096.5,248C 1100.39,245.058 1102.22,241.225 1102,236.5C 1099.55,244.913 1093.88,249.579 1085,250.5C 1082,248.522 1081.84,246.355 1084.5,244C 1080.79,245.11 1077.29,246.943 1074,249.5C 1073.03,247.726 1072.2,245.893 1071.5,244C 1075.47,240.675 1079.47,237.342 1083.5,234C 1076.36,237.243 1069.36,241.077 1062.5,245.5C 1060.59,243.925 1059.75,241.925 1060,239.5C 1063.61,237.28 1067.11,234.947 1070.5,232.5C 1074.8,229.677 1079.14,226.844 1083.5,224C 1078.47,225.682 1073.81,228.182 1069.5,231.5C 1063.73,234.22 1058.06,237.22 1052.5,240.5C 1051.68,238.892 1051.01,237.225 1050.5,235.5C 1058.07,229.776 1066.07,224.609 1074.5,220C 1075.7,219.346 1075.7,218.846 1074.5,218.5C 1064.99,223.755 1055.32,228.755 1045.5,233.5C 1043.69,231.303 1043.36,228.97 1044.5,226.5C 1052.38,222.132 1060.38,217.965 1068.5,214C 1058.43,217.307 1048.43,221.141 1038.5,225.5C 1036.55,223.724 1036.22,221.724 1037.5,219.5C 1044.12,216.63 1050.78,213.963 1057.5,211.5C 1059.51,210.772 1061.51,209.938 1063.5,209C 1061.23,208.595 1059.23,209.095 1057.5,210.5C 1049.45,212.296 1041.45,214.296 1033.5,216.5C 1031.69,215.082 1031.03,213.082 1031.5,210.5C 1035.1,209.613 1038.76,208.613 1042.5,207.5C 1047.29,206.867 1051.96,205.7 1056.5,204C 1050.67,204.238 1045,205.071 1039.5,206.5C 1034.76,206.701 1030.09,207.368 1025.5,208.5C 1024.23,206.305 1024.23,204.139 1025.5,202C 1030.45,200.95 1035.45,200.45 1040.5,200.5C 1043.27,200.579 1045.94,200.079 1048.5,199C 1044.31,198.188 1040.31,198.355 1036.5,199.5C 1029.83,199.5 1023.17,199.5 1016.5,199.5C 1016.5,197.833 1016.5,196.167 1016.5,194.5C 1025.17,194.666 1033.84,194.5 1042.5,194C 1038.58,192.844 1034.58,192.344 1030.5,192.5C 1018.86,191.478 1007.19,190.644 995.5,190C 997.833,189 1000.17,188 1002.5,187C 996.248,184.138 989.915,181.472 983.5,179C 986.167,178.667 988.833,178.333 991.5,178C 986.328,174.915 981.328,171.581 976.5,168C 979.833,167.667 983.167,167.333 986.5,167C 982.633,162.798 978.467,158.965 974,155.5C 973.333,154.833 973.333,154.167 974,153.5C 975.832,154.858 977.665,155.192 979.5,154.5C 974.214,149.596 971.38,143.596 971,136.5C 975.861,143.295 982.027,147.628 989.5,149.5C 986.472,145.639 983.639,141.639 981,137.5C 980.266,132.759 979.6,128.092 979,123.5C 981.305,127.304 983.805,130.97 986.5,134.5C 990.019,137.096 993.352,139.929 996.5,143C 997.332,143.688 997.998,143.521 998.5,142.5C 991.917,132.833 988.751,122.167 989,110.5C 991.667,115.833 994.333,121.167 997,126.5C 1002.52,130.594 1007.85,134.927 1013,139.5C 1010.25,133.359 1006.92,127.359 1003,121.5C 1001.67,114.197 1001,106.863 1001,99.5C 1003.61,105.725 1005.94,112.058 1008,118.5C 1015.83,125.667 1023.67,132.833 1031.5,140C 1042.01,145.755 1052.68,151.255 1063.5,156.5C 1075.19,172.361 1086.69,188.361 1098,204.5C 1102.33,208.167 1106.67,211.833 1111,215.5C 1111.67,214.833 1111.67,214.167 1111,213.5C 1109.12,211.957 1107.62,210.124 1106.5,208C 1110.68,206.204 1115.02,204.871 1119.5,204C 1115.83,203.667 1112.17,203.333 1108.5,203C 1112.36,201.77 1116.36,200.936 1120.5,200.5 Z"/></g>
<g><path style="opacity:1" fill="#f19ea1" d="M 1181.5,117.5 C 1179.92,116.998 1179.42,115.998 1180,114.5C 1181.04,115.244 1181.54,116.244 1181.5,117.5 Z"/></g>
<g><path style="opacity:1" fill="#f17f84" d="M 1175.5,120.5 C 1174.83,120.5 1174.5,120.833 1174.5,121.5C 1172.93,120.125 1172.1,118.459 1172,116.5C 1173.38,117.705 1174.54,119.038 1175.5,120.5 Z"/></g>
<g><path style="opacity:1" fill="#939291" d="M 1554.5,108.5 C 1553.5,120.655 1553.17,132.989 1553.5,145.5C 1552.34,132.673 1552.17,119.673 1553,106.5C 1553.72,107.044 1554.22,107.711 1554.5,108.5 Z"/></g>
<g><path style="opacity:1" fill="#939291" d="M 4398.5,108.5 C 4397.5,120.655 4397.17,132.989 4397.5,145.5C 4396.34,132.673 4396.17,119.673 4397,106.5C 4397.72,107.044 4398.22,107.711 4398.5,108.5 Z"/></g>
<g><path style="opacity:1" fill="#f49ea2" d="M 1156.5,137.5 C 1155.24,137.539 1154.24,137.039 1153.5,136C 1155,135.415 1156,135.915 1156.5,137.5 Z"/></g>
<g><path style="opacity:1" fill="#ee474c" d="M 1012.5,127.5 C 1017.6,133.505 1022.6,139.672 1027.5,146C 1034.86,149.682 1042.2,153.349 1049.5,157C 1041.39,154.626 1033.39,151.626 1025.5,148C 1020.52,141.532 1016.19,134.699 1012.5,127.5 Z"/></g>
<g><path style="opacity:1" fill="#f1dbdd" d="M 1156.5,137.5 C 1158.03,137.427 1159.03,138.094 1159.5,139.5C 1157.97,139.573 1156.97,138.906 1156.5,137.5 Z"/></g>
<g><path style="opacity:1" fill="#676564" d="M 2476.5,141.5 C 2477.21,140.596 2478.21,140.263 2479.5,140.5C 2479.5,190.833 2479.5,241.167 2479.5,291.5C 2478.21,291.737 2477.21,291.404 2476.5,290.5C 2477.83,266.009 2478.5,241.176 2478.5,216C 2478.5,190.824 2477.83,165.991 2476.5,141.5 Z"/></g>
<g><path style="opacity:1" fill="#f4a2a7" d="M 1195.5,142.5 C 1195.83,142.5 1196.17,142.5 1196.5,142.5C 1197.62,144.288 1197.79,146.288 1197,148.5C 1195.87,146.655 1195.37,144.655 1195.5,142.5 Z"/></g>
<g><path style="opacity:1" fill="#ef4e51" d="M 1001.5,136.5 C 1006.16,140.637 1010.5,145.137 1014.5,150C 1022.75,153.529 1031.09,156.862 1039.5,160C 1030.28,158.374 1021.28,155.707 1012.5,152C 1008.59,146.936 1004.92,141.769 1001.5,136.5 Z"/></g>
<g><path style="opacity:1" fill="#12100f" d="M 755.5,147.5 C 786.466,146.911 812.299,157.911 833,180.5C 845.536,196.949 851.37,215.615 850.5,236.5C 800.833,236.5 751.167,236.5 701.5,236.5C 698.492,270.154 706.826,300.487 726.5,327.5C 752.797,354.726 783.464,360.893 818.5,346C 832.169,338.198 842.835,327.365 850.5,313.5C 851.736,314.246 853.07,314.579 854.5,314.5C 838.632,360.182 806.466,384.515 758,387.5C 697.889,383.732 662.555,352.065 652,292.5C 646.473,259.197 651.807,227.863 668,198.5C 688.462,166.359 717.629,149.359 755.5,147.5 Z"/></g>
<g><path style="opacity:1" fill="#f06669" d="M 1186.5,141.5 C 1187.78,148.649 1188.28,155.983 1188,163.5C 1187,158.844 1186.17,154.178 1185.5,149.5C 1186.47,147.052 1186.81,144.385 1186.5,141.5 Z"/></g>
<g><path style="opacity:1" fill="#ee4c50" d="M 989.5,143.5 C 989.897,142.475 990.563,142.308 991.5,143C 995.833,147.333 1000.17,151.667 1004.5,156C 1014.37,159.736 1024.37,163.069 1034.5,166C 1024.43,164.316 1014.43,161.983 1004.5,159C 999.324,153.991 994.324,148.825 989.5,143.5 Z"/></g>
<g><path style="opacity:1" fill="#fcfbfb" d="M 750.5,152.5 C 773.671,151.339 788.171,162.005 794,184.5C 795.622,189.032 796.622,193.699 797,198.5C 797.5,209.495 797.667,220.495 797.5,231.5C 765.833,231.5 734.167,231.5 702.5,231.5C 703.672,209.124 710.172,188.457 722,169.5C 729.54,160.322 739.04,154.656 750.5,152.5 Z"/></g>
<g><path style="opacity:1" fill="#f0676a" d="M 1181.5,148.5 C 1182.85,154.305 1183.35,160.305 1183,166.5C 1181.85,162.553 1181.01,158.553 1180.5,154.5C 1181.46,152.735 1181.79,150.735 1181.5,148.5 Z"/></g>
<g><path style="opacity:1" fill="#ef4b4e" d="M 1024.5,170.5 C 1024.5,171.167 1024.17,171.5 1023.5,171.5C 1014.47,169.884 1005.47,168.05 996.5,166C 992,161.5 987.5,157 983,152.5C 982.333,151.833 982.333,151.167 983,150.5C 988.209,155.378 993.709,159.878 999.5,164C 1007.77,166.479 1016.1,168.646 1024.5,170.5 Z"/></g>
<g><path style="opacity:1" fill="#f2878c" d="M 1177.5,161.5 C 1178.64,164.32 1179.14,167.32 1179,170.5C 1177.86,168.257 1177.03,165.924 1176.5,163.5C 1177.34,163.158 1177.67,162.492 1177.5,161.5 Z"/></g>
<g><path style="opacity:1" fill="#ed4e53" d="M 1051.5,162.5 C 1053.38,162.393 1053.71,162.893 1052.5,164C 1048.92,166.041 1045.42,168.208 1042,170.5C 1041.33,168.5 1041.33,166.5 1042,164.5C 1042.25,165.624 1042.75,166.624 1043.5,167.5C 1046.23,165.808 1048.9,164.142 1051.5,162.5 Z"/></g>
<g><path style="opacity:1" fill="#f07f85" d="M 1057.5,170.5 C 1058,168.915 1059,168.415 1060.5,169C 1059.76,170.039 1058.76,170.539 1057.5,170.5 Z"/></g>
<g><path style="opacity:1" fill="#ef5053" d="M 984.5,170.5 C 984.735,169.903 985.235,169.57 986,169.5C 1002.06,173.511 1018.22,177.011 1034.5,180C 1017.32,179.286 1000.65,176.119 984.5,170.5 Z"/></g>
<g><path style="opacity:1" fill="#f17d81" d="M 1024.5,170.5 C 1027.97,171.365 1031.3,172.532 1034.5,174C 1030.64,173.862 1026.97,173.029 1023.5,171.5C 1024.17,171.5 1024.5,171.167 1024.5,170.5 Z"/></g>
<g><path style="opacity:1" fill="#f38081" d="M 1166.5,170.5 C 1168.1,171.799 1168.6,173.465 1168,175.5C 1166.99,173.975 1166.49,172.308 1166.5,170.5 Z"/></g>
<g><path style="opacity:1" fill="#f4a8ad" d="M 1131.5,174.5 C 1133.83,175.167 1136.17,175.833 1138.5,176.5C 1134.82,176.665 1131.15,176.499 1127.5,176C 1128.56,174.812 1129.9,174.312 1131.5,174.5 Z"/></g>
<g><path style="opacity:1" fill="#ee4d52" d="M 1057.5,170.5 C 1053.32,173.849 1048.82,176.849 1044,179.5C 1043.33,177.5 1043.33,175.5 1044,173.5C 1044.25,174.624 1044.75,175.624 1045.5,176.5C 1049.24,173.962 1053.24,171.962 1057.5,170.5 Z"/></g>
<g><path style="opacity:1" fill="#f18286" d="M 1064.5,175.5 C 1065.77,176.077 1065.77,176.743 1064.5,177.5C 1063.55,178.326 1062.55,178.492 1061.5,178C 1062.57,177.148 1063.57,176.315 1064.5,175.5 Z"/></g>
<g><path style="opacity:1" fill="#f05759" d="M 998.5,181.5 C 998.735,180.903 999.235,180.57 1000,180.5C 1012.41,183.158 1024.91,185.325 1037.5,187C 1024.1,187.648 1011.1,185.815 998.5,181.5 Z"/></g>
<g><path style="opacity:1" fill="#f18389" d="M 1123.5,181.5 C 1127.17,182.167 1130.83,182.833 1134.5,183.5C 1130.45,183.824 1126.45,183.491 1122.5,182.5C 1122.62,181.893 1122.96,181.56 1123.5,181.5 Z"/></g>
<g><path style="opacity:1" fill="#ec3c45" d="M 1057.5,179.5 C 1059.38,179.393 1059.71,179.893 1058.5,181C 1055.5,182.833 1052.5,184.667 1049.5,186.5C 1048.39,185.277 1048.22,183.944 1049,182.5C 1049.33,183.167 1049.67,183.833 1050,184.5C 1052.48,182.686 1054.98,181.019 1057.5,179.5 Z"/></g>
<g><path style="opacity:1" fill="#ed4e52" d="M 1067.5,184.5 C 1069.38,184.393 1069.71,184.893 1068.5,186C 1064.04,188.3 1059.7,190.8 1055.5,193.5C 1054.36,191.579 1054.19,189.579 1055,187.5C 1055.48,188.448 1055.65,189.448 1055.5,190.5C 1059.78,189.029 1063.78,187.029 1067.5,184.5 Z"/></g>
<g><path style="opacity:1" fill="#ef737a" d="M 1119.5,188.5 C 1123.83,189.167 1128.17,189.833 1132.5,190.5C 1126.49,190.666 1120.49,190.499 1114.5,190C 1116.15,189.392 1117.82,188.892 1119.5,188.5 Z"/></g>
<g><path style="opacity:1" fill="#ef767d" d="M 1030.5,192.5 C 1034.58,192.344 1038.58,192.844 1042.5,194C 1033.84,194.5 1025.17,194.666 1016.5,194.5C 1021.17,193.833 1025.83,193.167 1030.5,192.5 Z"/></g>
<g><path style="opacity:1" fill="#ed494f" d="M 1071.5,192.5 C 1073.38,192.393 1073.71,192.893 1072.5,194C 1069.37,195.635 1066.37,197.468 1063.5,199.5C 1062.36,197.579 1062.19,195.579 1063,193.5C 1063.48,194.448 1063.65,195.448 1063.5,196.5C 1066.44,195.696 1069.11,194.362 1071.5,192.5 Z"/></g>
<g><path style="opacity:1" fill="#f07f85" d="M 1081.5,198.5 C 1082,196.915 1083,196.415 1084.5,197C 1083.76,198.039 1082.76,198.539 1081.5,198.5 Z"/></g>
<g><path style="opacity:1" fill="#f49ea3" d="M 1036.5,199.5 C 1040.31,198.355 1044.31,198.188 1048.5,199C 1045.94,200.079 1043.27,200.579 1040.5,200.5C 1039.43,199.566 1038.1,199.232 1036.5,199.5 Z"/></g>
<g><path style="opacity:1" fill="#f18389" d="M 1119.5,198.5 C 1126.68,198.371 1127.01,199.038 1120.5,200.5C 1120.17,199.833 1119.83,199.167 1119.5,198.5 Z"/></g>
<g><path style="opacity:1" fill="#ee4d52" d="M 1081.5,198.5 C 1078.74,200.725 1075.74,202.725 1072.5,204.5C 1071.37,202.926 1071.2,201.259 1072,199.5C 1072.39,200.428 1073.05,201.095 1074,201.5C 1076.46,200.349 1078.96,199.349 1081.5,198.5 Z"/></g>
<g><path style="opacity:1" fill="#f4aab0" d="M 1081.5,206.5 C 1080.17,207.5 1080.17,208.5 1081.5,209.5C 1081.44,210.043 1081.11,210.376 1080.5,210.5C 1079.36,208.579 1079.19,206.579 1080,204.5C 1080.72,205.044 1081.22,205.711 1081.5,206.5 Z"/></g>
<g><path style="opacity:1" fill="#f0696c" d="M 1042.5,207.5 C 1041.79,206.596 1040.79,206.263 1039.5,206.5C 1045,205.071 1050.67,204.238 1056.5,204C 1051.96,205.7 1047.29,206.867 1042.5,207.5 Z"/></g>
<g><path style="opacity:1" fill="#f05859" d="M 1081.5,209.5 C 1080.17,208.5 1080.17,207.5 1081.5,206.5C 1081.43,206.938 1081.6,207.272 1082,207.5C 1084.52,205.621 1087.02,204.621 1089.5,204.5C 1086.82,206.193 1084.15,207.86 1081.5,209.5 Z"/></g>
<g><path style="opacity:1" fill="#ef4e51" d="M 1128.5,209.5 C 1132.61,207.967 1133.11,208.633 1130,211.5C 1129.72,210.584 1129.22,209.918 1128.5,209.5 Z"/></g>
<g><path style="opacity:1" fill="#ed3941" d="M 1141.5,209.5 C 1142.95,208.387 1144.61,208.22 1146.5,209C 1145.67,209.833 1144.83,210.667 1144,211.5C 1143.58,210.244 1142.75,209.577 1141.5,209.5 Z"/></g>
<g><path style="opacity:1" fill="#ee6e74" d="M 1057.5,211.5 C 1057.5,211.167 1057.5,210.833 1057.5,210.5C 1059.23,209.095 1061.23,208.595 1063.5,209C 1061.51,209.938 1059.51,210.772 1057.5,211.5 Z"/></g>
<g><path style="opacity:1" fill="#f28185" d="M 1153.5,210.5 C 1158.42,210.135 1158.75,211.135 1154.5,213.5C 1153.61,212.675 1153.28,211.675 1153.5,210.5 Z"/></g>
<g><path style="opacity:1" fill="#f0797e" d="M 1091.5,212.5 C 1092,210.915 1093,210.415 1094.5,211C 1093.76,212.039 1092.76,212.539 1091.5,212.5 Z"/></g>
<g><path style="opacity:1" fill="#ec494f" d="M 1091.5,212.5 C 1088.42,216.512 1087.25,216.179 1088,211.5C 1089.01,212.337 1090.18,212.67 1091.5,212.5 Z"/></g>
<g><path style="opacity:1" fill="#f07e84" d="M 1031.5,210.5 C 1031.03,213.082 1031.69,215.082 1033.5,216.5C 1032.79,217.404 1031.79,217.737 1030.5,217.5C 1030.2,214.941 1030.53,212.607 1031.5,210.5 Z"/></g>
<g><path style="opacity:1" fill="#ee5c61" d="M 1117.5,214.5 C 1119.36,213.207 1121.36,213.207 1123.5,214.5C 1122.24,215.382 1121.07,216.382 1120,217.5C 1119.62,216.058 1118.79,215.058 1117.5,214.5 Z"/></g>
<g><path style="opacity:1" fill="#ee464a" d="M 1132.5,216.5 C 1138.69,214.834 1139.02,215.834 1133.5,219.5C 1133.41,218.528 1133.07,217.528 1132.5,216.5 Z"/></g>
<g><path style="opacity:1" fill="#f28487" d="M 1098.5,217.5 C 1099,215.915 1100,215.415 1101.5,216C 1100.76,217.039 1099.76,217.539 1098.5,217.5 Z"/></g>
<g><path style="opacity:1" fill="#eb3c45" d="M 1169.5,213.5 C 1170.16,214.398 1170.82,215.398 1171.5,216.5C 1173.21,215.391 1173.88,216.058 1173.5,218.5C 1169.07,219.078 1167.73,217.411 1169.5,213.5 Z"/></g>
<g><path style="opacity:1" fill="#f17073" d="M 1144.5,218.5 C 1146.36,217.207 1148.36,217.207 1150.5,218.5C 1149.24,219.382 1148.07,220.382 1147,221.5C 1146.62,220.058 1145.79,219.058 1144.5,218.5 Z"/></g>
<g><path style="opacity:1" fill="#ed4b51" d="M 1098.5,217.5 C 1096.85,218.97 1095.02,220.303 1093,221.5C 1092.33,220.167 1092.33,218.833 1093,217.5C 1094.71,218.138 1096.54,218.138 1098.5,217.5 Z"/></g>
<g><path style="opacity:1" fill="#a2a1a0" d="M 3020.5,218.5 C 3012.5,218.5 3004.5,218.5 2996.5,218.5C 2996.5,260.833 2996.5,303.167 2996.5,345.5C 2995.5,303.003 2995.17,260.337 2995.5,217.5C 3004.02,217.174 3012.35,217.507 3020.5,218.5 Z"/></g>
<g><path style="opacity:1" fill="#bfbebd" d="M 4110.5,218.5 C 4107.17,218.5 4103.83,218.5 4100.5,218.5C 4100.5,263.167 4100.5,307.833 4100.5,352.5C 4099.5,307.67 4099.17,262.67 4099.5,217.5C 4103.37,217.185 4107.04,217.518 4110.5,218.5 Z"/></g>
<g><path style="opacity:1" fill="#ea4049" d="M 1177.5,219.5 C 1179.3,220.793 1180.96,222.293 1182.5,224C 1179.81,223.823 1178.15,222.323 1177.5,219.5 Z"/></g>
<g><path style="opacity:1" fill="#ec2635" d="M 1121.5,223.5 C 1127.6,222.813 1128.1,224.146 1123,227.5C 1122.21,226.255 1121.71,224.922 1121.5,223.5 Z"/></g>
<g><path style="opacity:1" fill="#f1777b" d="M 1108.5,224.5 C 1114.6,223.813 1115.1,225.146 1110,228.5C 1109.21,227.255 1108.71,225.922 1108.5,224.5 Z"/></g>
<g><path style="opacity:1" fill="#ef5558" d="M 1100.5,222.5 C 1101.24,222.369 1101.91,222.536 1102.5,223C 1100.25,224.377 1098.08,225.877 1096,227.5C 1095.52,226.552 1095.35,225.552 1095.5,224.5C 1097.55,224.598 1099.22,223.931 1100.5,222.5 Z"/></g>
<g><path style="opacity:1" fill="#ef5356" d="M 1138.5,224.5 C 1139.38,224.369 1140.04,224.702 1140.5,225.5C 1139.19,227.316 1137.69,228.983 1136,230.5C 1135.38,229.551 1135.55,228.718 1136.5,228C 1135.83,227.333 1135.17,226.667 1134.5,226C 1136.06,225.79 1137.39,225.29 1138.5,224.5 Z"/></g>
<g><path style="opacity:1" fill="#ee575b" d="M 1169.5,224.5 C 1170.68,224.281 1171.68,224.614 1172.5,225.5C 1171.05,226.354 1169.72,227.354 1168.5,228.5C 1168.17,228.167 1167.83,227.833 1167.5,227.5C 1168.19,226.482 1168.86,225.482 1169.5,224.5 Z"/></g>
<g><path style="opacity:1" fill="#ed3f47" d="M 1145.5,230.5 C 1146.95,229.387 1148.61,229.22 1150.5,230C 1149.04,231.628 1147.37,231.795 1145.5,230.5 Z"/></g>
<g><path style="opacity:1" fill="#f06164" d="M 1070.5,232.5 C 1070.5,231.833 1070.17,231.5 1069.5,231.5C 1073.81,228.182 1078.47,225.682 1083.5,224C 1079.14,226.844 1074.8,229.677 1070.5,232.5 Z"/></g>
<g><path style="opacity:1" fill="#ef5457" d="M 1096.5,231.5 C 1097.87,231.343 1099.21,231.51 1100.5,232C 1099.07,232.465 1097.9,233.299 1097,234.5C 1096.52,233.552 1096.35,232.552 1096.5,231.5 Z"/></g>
<g><path style="opacity:1" fill="#ed636c" d="M 1170.5,232.5 C 1166.96,232.187 1163.62,232.521 1160.5,233.5C 1158.44,233.313 1156.44,232.813 1154.5,232C 1160.02,231.183 1165.35,231.349 1170.5,232.5 Z"/></g>
<g><path style="opacity:1" fill="#ef494d" d="M 1109.5,235.5 C 1114.87,233.69 1115.54,234.69 1111.5,238.5C 1110.49,238.062 1110.49,237.396 1111.5,236.5C 1111.04,235.702 1110.38,235.369 1109.5,235.5 Z"/></g>
<g><path style="opacity:1" fill="#ee5055" d="M 1126.5,234.5 C 1128.03,234.517 1128.53,235.184 1128,236.5C 1126.62,237.551 1125.62,238.884 1125,240.5C 1124.52,239.552 1124.35,238.552 1124.5,237.5C 1123.45,237.649 1122.45,237.483 1121.5,237C 1123.17,236.015 1124.84,235.181 1126.5,234.5 Z"/></g>
<g><path style="opacity:1" fill="#ee5a5f" d="M 1137.5,236.5 C 1142.27,236.367 1142.44,237.7 1138,240.5C 1137.5,239.333 1136.67,238.5 1135.5,238C 1136.42,237.722 1137.08,237.222 1137.5,236.5 Z"/></g>
<g><path style="opacity:1" fill="#f07277" d="M 1147.5,239.5 C 1150.55,239.494 1151.05,240.494 1149,242.5C 1147.96,241.756 1147.46,240.756 1147.5,239.5 Z"/></g>
<g><path style="opacity:1" fill="#ef5759" d="M 1111.5,244.5 C 1116.84,243.664 1117.67,244.998 1114,248.5C 1113.23,247.151 1112.06,246.318 1110.5,246C 1111.06,245.617 1111.39,245.117 1111.5,244.5 Z"/></g>
<g><path style="opacity:1" fill="#ec3c44" d="M 1128.5,246.5 C 1129.55,246.351 1130.55,246.517 1131.5,247C 1130.7,248.771 1129.53,250.271 1128,251.5C 1127.68,249.939 1126.85,248.772 1125.5,248C 1126.74,247.768 1127.74,247.268 1128.5,246.5 Z"/></g>
<g><path style="opacity:1" fill="#ed4c52" d="M 1142.5,247.5 C 1143.56,249.07 1143.06,250.403 1141,251.5C 1140.63,250.584 1140.13,249.75 1139.5,249C 1140.74,248.768 1141.74,248.268 1142.5,247.5 Z"/></g>
<g><path style="opacity:1" fill="#eb3943" d="M 1102.5,251.5 C 1106.61,249.967 1107.11,250.633 1104,253.5C 1103.72,252.584 1103.22,251.918 1102.5,251.5 Z"/></g>
<g><path style="opacity:1" fill="#f27476" d="M 1114.5,255.5 C 1121.13,253.398 1121.96,254.731 1117,259.5C 1116.8,257.68 1115.97,256.347 1114.5,255.5 Z"/></g>
<g><path style="opacity:1" fill="#ed646b" d="M 1094.5,257.5 C 1098.61,255.967 1099.11,256.633 1096,259.5C 1095.72,258.584 1095.22,257.918 1094.5,257.5 Z"/></g>
<g><path style="opacity:1" fill="#ec434a" d="M 1131.5,258.5 C 1135.61,256.967 1136.11,257.633 1133,260.5C 1132.72,259.584 1132.22,258.918 1131.5,258.5 Z"/></g>
<g><path style="opacity:1" fill="#eb4d54" d="M 1105.5,259.5 C 1106.95,258.387 1108.61,258.22 1110.5,259C 1108.55,261.426 1106.89,261.593 1105.5,259.5 Z"/></g>
<g><path style="opacity:1" fill="#ef4d50" d="M 1075.5,264.5 C 1076.6,263.402 1077.93,263.235 1079.5,264C 1078.12,265.334 1076.79,265.501 1075.5,264.5 Z"/></g>
<g><path style="opacity:1" fill="#ec545a" d="M 1086.5,264.5 C 1087.6,263.402 1088.93,263.235 1090.5,264C 1089.32,265.768 1087.98,265.935 1086.5,264.5 Z"/></g>
<g><path style="opacity:1" fill="#e8424d" d="M 1123.5,262.5 C 1124.71,263.497 1124.55,264.497 1123,265.5C 1122.53,264.423 1122.7,263.423 1123.5,262.5 Z"/></g>
<g><path style="opacity:1" fill="#ec575d" d="M 1097.5,266.5 C 1101.61,264.967 1102.11,265.633 1099,268.5C 1098.72,267.584 1098.22,266.918 1097.5,266.5 Z"/></g>
<g><path style="opacity:1" fill="#ed444a" d="M 1110.5,267.5 C 1111.6,266.402 1112.93,266.235 1114.5,267C 1113.12,268.334 1111.79,268.501 1110.5,267.5 Z"/></g>
<g><path style="opacity:1" fill="#f0797e" d="M 1139.5,263.5 C 1139.83,263.5 1140.17,263.5 1140.5,263.5C 1138.85,265.812 1136.85,267.812 1134.5,269.5C 1135.12,267.161 1136.78,265.161 1139.5,263.5 Z"/></g>
<g><path style="opacity:1" fill="#ed2f39" d="M 1116.5,272.5 C 1120.48,275.896 1124.15,279.73 1127.5,284C 1131.56,284.717 1135.23,286.383 1138.5,289C 1136.5,290 1134.5,291 1132.5,292C 1134.8,293.263 1135.63,295.097 1135,297.5C 1133.68,293.818 1131.18,292.318 1127.5,293C 1129.21,294.133 1129.71,295.633 1129,297.5C 1126.03,294.527 1123.03,291.527 1120,288.5C 1118.72,283.178 1117.56,277.845 1116.5,272.5 Z"/></g>
<g><path style="opacity:1" fill="#f29297" d="M 1098.5,279.5 C 1097.83,279.5 1097.5,279.833 1097.5,280.5C 1096.37,278.372 1096.2,276.039 1097,273.5C 1097.81,275.436 1098.31,277.436 1098.5,279.5 Z"/></g>
<g><path style="opacity:1" fill="#ee6e74" d="M 1052.5,277.5 C 1052.46,276.244 1052.96,275.244 1054,274.5C 1054.58,275.998 1054.08,276.998 1052.5,277.5 Z"/></g>
<g><path style="opacity:1" fill="#f4aaaf" d="M 1092.5,288.5 C 1092.44,289.043 1092.11,289.376 1091.5,289.5C 1090.83,285.687 1090.17,282.021 1089.5,278.5C 1089.24,277.022 1089.57,275.689 1090.5,274.5C 1091.7,274.846 1091.7,275.346 1090.5,276C 1091.14,280.268 1091.81,284.435 1092.5,288.5 Z"/></g>
<g><path style="opacity:1" fill="#f06f72" d="M 1070.5,281.5 C 1070.5,280.833 1070.17,280.5 1069.5,280.5C 1070.65,278.193 1071.82,275.86 1073,273.5C 1073.02,276.451 1072.19,279.117 1070.5,281.5 Z"/></g>
<g><path style="opacity:1" fill="#abaaa9" d="M 3541.5,239.5 C 3542.66,261.329 3542.83,283.329 3542,305.5C 3541.28,304.956 3540.78,304.289 3540.5,303.5C 3541.5,282.34 3541.83,261.007 3541.5,239.5 Z"/></g>
<g><path style="opacity:1" fill="#f06467" d="M 1176.5,286.5 C 1178.86,286.337 1181.19,286.503 1183.5,287C 1177.86,288.53 1172.19,289.53 1166.5,290C 1169.8,288.517 1173.14,287.35 1176.5,286.5 Z"/></g>
<g><path style="opacity:1" fill="#ec4c53" d="M 1148.5,288.5 C 1149.54,287.209 1150.71,287.209 1152,288.5C 1153.19,290.044 1153.52,291.711 1153,293.5C 1152,291.34 1150.5,289.673 1148.5,288.5 Z"/></g>
<g><path style="opacity:1" fill="#ee595d" d="M 1184.5,290.5 C 1186.86,290.337 1189.19,290.503 1191.5,291C 1183.95,293.127 1176.28,294.127 1168.5,294C 1173.97,292.871 1179.3,291.704 1184.5,290.5 Z"/></g>
<g><path style="opacity:1" fill="#f05b5d" d="M 1119.5,295.5 C 1120.67,294.295 1122.01,294.295 1123.5,295.5C 1125.12,296.869 1125.62,298.536 1125,300.5C 1123.92,297.921 1122.09,296.254 1119.5,295.5 Z"/></g>
<g><path style="opacity:1" fill="#f16f72" d="M 1154.5,295.5 C 1156.53,295.338 1158.53,295.505 1160.5,296C 1155.67,298.033 1150.67,299.033 1145.5,299C 1148.57,297.704 1151.57,296.538 1154.5,295.5 Z"/></g>
<g><path style="opacity:1" fill="#81807f" d="M 2384.5,218.5 C 2376.5,218.5 2368.5,218.5 2360.5,218.5C 2360.5,260.5 2360.5,302.5 2360.5,344.5C 2359.5,302.337 2359.17,260.003 2359.5,217.5C 2368.02,217.174 2376.35,217.507 2384.5,218.5 Z"/></g>
<g><path style="opacity:1" fill="#ee5256" d="M 1115.5,301.5 C 1116.55,301.351 1117.55,301.517 1118.5,302C 1118.17,302.333 1117.83,302.667 1117.5,303C 1108.11,306.009 1098.77,308.676 1089.5,311C 1098.16,307.505 1106.83,304.338 1115.5,301.5 Z"/></g>
<g><path style="opacity:1" fill="#ee585c" d="M 1101.5,314.5 C 1113.11,308.241 1125.44,304.074 1138.5,302C 1126.25,306.471 1113.92,310.638 1101.5,314.5 Z"/></g>
<g><path style="opacity:1" fill="#f0787e" d="M 1101.5,314.5 C 1100.47,315.848 1099.14,316.348 1097.5,316C 1098.56,314.812 1099.9,314.312 1101.5,314.5 Z"/></g>
<g><path style="opacity:1" fill="#ed4047" d="M 1084.5,328.5 C 1080.56,328.1 1076.89,326.933 1073.5,325C 1075.45,322.929 1077.79,322.262 1080.5,323C 1079.33,323.419 1078.33,324.085 1077.5,325C 1080.17,325.67 1082.51,326.837 1084.5,328.5 Z"/></g>
<g><path style="opacity:1" fill="#ef6a6f" d="M 1090.5,320.5 C 1095.94,321.759 1098.44,325.092 1098,330.5C 1096.98,325.654 1094.15,322.654 1089.5,321.5C 1090.17,321.5 1090.5,321.167 1090.5,320.5 Z"/></g>
<g><path style="opacity:1" fill="#f0797e" d="M 1084.5,328.5 C 1086.31,328.491 1087.98,328.991 1089.5,330C 1087.47,330.599 1085.8,330.099 1084.5,328.5 Z"/></g>
<g><path style="opacity:1" fill="#42413f" d="M 131.5,375.5 C 131.5,376.833 131.5,378.167 131.5,379.5C 183.5,379.5 235.5,379.5 287.5,379.5C 235.336,380.499 183.003,380.832 130.5,380.5C 130.216,378.585 130.549,376.919 131.5,375.5 Z"/></g>
<g><path style="opacity:1" fill="#434240" d="M 375.5,375.5 C 375.5,376.833 375.5,378.167 375.5,379.5C 412.239,379.827 448.906,379.493 485.5,378.5C 448.848,380.494 411.848,381.16 374.5,380.5C 374.216,378.585 374.549,376.919 375.5,375.5 Z"/></g>
<g><path style="opacity:1" fill="#424140" d="M 524.5,375.5 C 524.5,376.833 524.5,378.167 524.5,379.5C 560.833,379.5 597.167,379.5 633.5,379.5C 633.5,378.167 633.5,376.833 633.5,375.5C 634.451,376.919 634.784,378.585 634.5,380.5C 597.5,380.5 560.5,380.5 523.5,380.5C 523.216,378.585 523.549,376.919 524.5,375.5 Z"/></g>
<g><path style="opacity:1" fill="#676564" d="M 1302.5,390.5 C 1356.16,392.496 1410.16,393.162 1464.5,392.5C 1410.34,393.499 1356,393.832 1301.5,393.5C 1301.26,392.209 1301.6,391.209 1302.5,390.5 Z"/></g>
<g><path style="opacity:1" fill="#676564" d="M 1617.5,390.5 C 1618.4,391.209 1618.74,392.209 1618.5,393.5C 1574,393.832 1529.66,393.499 1485.5,392.5C 1529.85,393.161 1573.85,392.495 1617.5,390.5 Z"/></g>
<g><path style="opacity:1" fill="#686665" d="M 2550.5,296.5 C 2551.21,295.596 2552.21,295.263 2553.5,295.5C 2553.5,328.167 2553.5,360.833 2553.5,393.5C 2452.33,393.833 2351.33,393.499 2250.5,392.5C 2351.17,392.5 2451.83,392.5 2552.5,392.5C 2553.16,360.149 2552.49,328.149 2550.5,296.5 Z"/></g>
<g><path style="opacity:1" fill="#737170" d="M 3188.5,296.5 C 3189.5,328.662 3189.83,360.996 3189.5,393.5C 3088.17,393.5 2986.83,393.5 2885.5,393.5C 2885.26,392.209 2885.6,391.209 2886.5,390.5C 2986.83,392.498 3087.49,393.164 3188.5,392.5C 3188.5,360.5 3188.5,328.5 3188.5,296.5 Z"/></g>
<g><path style="opacity:1" fill="#686665" d="M 3357.5,390.5 C 3358.4,391.209 3358.74,392.209 3358.5,393.5C 3314,393.832 3269.66,393.499 3225.5,392.5C 3269.85,393.161 3313.85,392.495 3357.5,390.5 Z"/></g>
<g><path style="opacity:1" fill="#696766" d="M 3614.5,390.5 C 3675.16,392.496 3736.16,393.163 3797.5,392.5C 3736.34,393.499 3675,393.832 3613.5,393.5C 3613.26,392.209 3613.6,391.209 3614.5,390.5 Z"/></g>
<g><path style="opacity:1" fill="#747271" d="M 4292.5,296.5 C 4293.5,328.662 4293.83,360.996 4293.5,393.5C 4192.17,393.5 4090.83,393.5 3989.5,393.5C 3989.26,392.209 3989.6,391.209 3990.5,390.5C 4090.83,392.498 4191.49,393.164 4292.5,392.5C 4292.5,360.5 4292.5,328.5 4292.5,296.5 Z"/></g>
<g><path style="opacity:1" fill="#676564" d="M 4330.5,390.5 C 4351.99,391.833 4373.82,392.5 4396,392.5C 4418.18,392.5 4440.01,391.833 4461.5,390.5C 4462.4,391.209 4462.74,392.209 4462.5,393.5C 4418.17,393.5 4373.83,393.5 4329.5,393.5C 4329.26,392.209 4329.6,391.209 4330.5,390.5 Z"/></g>
<g><path style="opacity:1" fill="#676564" d="M 4803.5,390.5 C 4829.99,391.833 4856.82,392.5 4884,392.5C 4911.18,392.5 4938.01,391.833 4964.5,390.5C 4965.4,391.209 4965.74,392.209 4965.5,393.5C 4911.17,393.5 4856.83,393.5 4802.5,393.5C 4802.26,392.209 4802.6,391.209 4803.5,390.5 Z"/></g>
</svg>
